<svg width="301" height="386" viewBox="0 0 301 386" fill="none" xmlns="http://www.w3.org/2000/svg">
<path opacity="0.05" fill-rule="evenodd" clip-rule="evenodd" d="M-6.76099 79.92C22.3746 50.9213 62.579 33.0075 107.089 33.0075C151.579 33.0075 191.782 50.9181 220.918 79.9147L220.923 79.92C250.048 108.923 267.993 148.87 267.993 193C267.993 237.13 250.048 277.09 220.929 306.091C191.79 335.079 151.583 352.992 107.089 352.992H-53.8304V193C-53.8304 148.861 -35.8949 108.917 -6.76099 79.92ZM301 193C301 139.706 279.279 91.4477 244.208 56.5253C209.121 21.6028 160.635 0 107.089 0C53.5273 0 5.04153 21.6028 -30.0458 56.5253C-65.1331 91.4477 -86.8379 139.706 -86.8379 193V379.031C-86.8379 382.88 -83.7031 386 -79.8363 386H107.089C160.635 386 209.121 364.397 244.208 329.491C279.279 294.568 301 246.294 301 193ZM50.0423 251.111C64.7335 265.733 85.0654 274.795 107.548 274.795C130.016 274.795 150.348 265.733 165.055 251.111C179.778 236.472 188.876 216.273 188.876 193.919C188.876 171.581 179.778 151.366 165.055 136.759C150.348 122.105 130.016 113.043 107.548 113.043C85.0654 113.043 64.7335 122.105 50.0423 136.759C35.3032 151.366 26.2048 171.581 26.2048 193.919C26.2048 216.273 35.3032 236.472 50.0423 251.111Z" fill="#F7F7F7"/>
</svg>
