<svg width="24" height="32" viewBox="0 0 24 32" fill="none" xmlns="http://www.w3.org/2000/svg">
<path fill-rule="evenodd" clip-rule="evenodd" d="M17.138 0.195312L23.8047 6.862C23.9297 6.987 24 7.15625 24 7.33331V29.3333C24 30.8041 22.8041 32 21.3334 32H2.66669C1.19594 32 0 30.8041 0 29.3334V2.66669C0 1.19594 1.19594 0 2.66663 0H16.6666C16.8438 0 17.013 0.0703125 17.138 0.195312ZM21.7239 6.66669L17.3333 2.27606V5.33337C17.3333 6.06838 17.9316 6.66669 18.6666 6.66669H21.7239ZM21.3334 30.6666C22.0684 30.6666 22.6667 30.0683 22.6667 29.3333V8H18.6667C17.1959 8 16 6.80406 16 5.33337V1.33337H2.66669C1.93169 1.33337 1.33337 1.93169 1.33337 2.66669V29.3333C1.33337 30.0683 1.93169 30.6666 2.66669 30.6666H21.3334ZM13.8047 18.1953C14.1953 18.5859 14.7819 19.0853 15.3991 19.5709C16.3431 19.4128 17.0644 19.3333 17.3333 19.3333C18.1992 19.3333 20 19.3333 20 20.9094C20 21.7109 19.653 22.6666 18 22.6666C17.403 22.6666 16.1706 21.8456 15.0547 20.9876C13.6621 21.2473 11.8977 21.6621 10.4785 22.2219C9.11131 25.011 7.23956 26.6666 6 26.6666C5.03844 26.6666 4 26.0749 4 25.1191C4 23.8027 5.40625 23.1361 7.53519 22.1283L7.57418 22.1098C8.02998 21.8936 8.51997 21.6613 9.03519 21.4036C9.18231 21.3301 9.33469 21.2591 9.49156 21.1894C9.68431 20.7584 9.86656 20.2923 10.0346 19.7891C10.0945 19.6088 10.1534 19.432 10.2111 19.2588C10.4889 18.4241 10.7395 17.6712 10.9584 17.0033C9.87831 15.5996 9.33337 14.3919 9.33337 13.3971C9.33337 11.1406 10.4212 10.6666 11.3334 10.6666C12.5339 10.6666 13.3334 11.1204 13.3334 13.3333C13.3334 13.8542 13.0645 14.8314 12.4512 16.7266C12.8444 17.1953 13.2969 17.6875 13.8047 18.1953ZM5.33331 25.1191C5.36131 25.1536 5.61912 25.3333 6 25.3333C6.37825 25.3333 7.3685 24.6602 8.36981 23.2083C8.32245 23.2308 8.27544 23.2529 8.2288 23.2748C8.18761 23.2942 8.14672 23.3135 8.10612 23.3327C6.74281 23.9785 5.33331 24.6464 5.33331 25.1191ZM11.3334 12C11.1003 12 10.6667 12 10.6667 13.3971C10.6667 13.9186 10.9459 14.6094 11.4694 15.4154C11.8126 14.3177 12.0001 13.6146 12.0001 13.3333C12.0001 12 11.8048 12 11.3334 12ZM11.2989 20.2109C11.2598 20.3294 11.2194 20.4466 11.1777 20.5625C12.0137 20.2975 12.888 20.0755 13.7098 19.8964C13.2969 19.5443 12.9871 19.263 12.8621 19.138C12.5424 18.8184 12.2442 18.5065 11.9675 18.2018C11.8083 18.6831 11.6336 19.2071 11.4431 19.7784C11.396 19.9197 11.3479 20.0638 11.2989 20.2109ZM18.0482 21.3372C18.6667 21.3333 18.6667 21.209 18.6667 20.9095C18.5977 20.763 18.3184 20.6667 17.3333 20.6667C17.2552 20.6667 17.1165 20.6771 16.9284 20.6979C17.4466 21.0508 17.8666 21.2982 18.0482 21.3372Z" fill="#0B0F21"/>
</svg>
