<svg width="24" height="32" viewBox="0 0 24 32" fill="none" xmlns="http://www.w3.org/2000/svg">
<path fill-rule="evenodd" clip-rule="evenodd" d="M23.8047 6.862L17.138 0.195312C17.013 0.0703125 16.8438 0 16.6666 0H2.66663C1.19594 0 0 1.19594 0 2.66669V29.3334C0 30.8041 1.19594 32 2.66669 32H21.3334C22.8041 32 24 30.8041 24 29.3333V7.33331C24 7.15625 23.9297 6.987 23.8047 6.862ZM17.3333 2.27606L21.7239 6.66669H18.6666C17.9316 6.66669 17.3333 6.06838 17.3333 5.33337V2.27606ZM22.6667 29.3333C22.6667 30.0683 22.0684 30.6666 21.3334 30.6666H2.66669C1.93169 30.6666 1.33337 30.0683 1.33337 29.3333V2.66669C1.33337 1.93169 1.93169 1.33337 2.66669 1.33337H16V5.33337C16 6.80406 17.1959 8 18.6667 8H22.6667V29.3333Z" fill="white"/>
<path fill-rule="evenodd" clip-rule="evenodd" d="M15.3991 19.5709C14.7819 19.0853 14.1953 18.5859 13.8047 18.1953C13.2969 17.6875 12.8444 17.1953 12.4512 16.7266C13.0645 14.8314 13.3334 13.8542 13.3334 13.3333C13.3334 11.1204 12.5339 10.6666 11.3334 10.6666C10.4212 10.6666 9.33337 11.1406 9.33337 13.3971C9.33337 14.3919 9.87831 15.5996 10.9584 17.0033C10.6941 17.8099 10.3835 18.7403 10.0346 19.7891C9.86656 20.2923 9.68431 20.7584 9.49156 21.1894C9.33469 21.2591 9.18231 21.3301 9.03519 21.4036C8.50525 21.6686 8.002 21.9069 7.53519 22.1283C5.40625 23.1361 4 23.8028 4 25.1191C4 26.0749 5.03844 26.6666 6 26.6666C7.23956 26.6666 9.11131 25.011 10.4785 22.2219C11.8977 21.6621 13.6621 21.2473 15.0547 20.9876C16.1706 21.8456 17.403 22.6666 18 22.6666C19.653 22.6666 20 21.7109 20 20.9094C20 19.3333 18.1992 19.3333 17.3333 19.3333C17.0644 19.3333 16.3431 19.4128 15.3991 19.5709ZM6 25.3333C5.61913 25.3333 5.36131 25.1536 5.33331 25.1191C5.33331 24.6464 6.74281 23.9785 8.10612 23.3327C8.19269 23.2917 8.28062 23.2506 8.36981 23.2083C7.3685 24.6602 6.37825 25.3333 6 25.3333ZM10.6667 13.3971C10.6667 12 11.1003 12 11.3334 12C11.8047 12 12.0001 12 12.0001 13.3333C12.0001 13.6146 11.8126 14.3177 11.4694 15.4154C10.9459 14.6094 10.6667 13.9186 10.6667 13.3971ZM11.1778 20.5625C11.2194 20.4466 11.2598 20.3294 11.2989 20.2109C11.5463 19.4688 11.7689 18.8021 11.9675 18.2018C12.2442 18.5065 12.5424 18.8184 12.8621 19.138C12.9871 19.263 13.2969 19.5443 13.7098 19.8964C12.888 20.0755 12.0137 20.2975 11.1778 20.5625ZM18.6667 20.9095C18.6667 21.209 18.6667 21.3333 18.0482 21.3373C17.8666 21.2982 17.4466 21.0508 16.9284 20.6979C17.1165 20.6771 17.2552 20.6667 17.3333 20.6667C18.3184 20.6667 18.5977 20.763 18.6667 20.9095Z" fill="white"/>
</svg>
