<svg width="280" height="80" viewBox="0 0 280 80" fill="none" xmlns="http://www.w3.org/2000/svg">
<rect width="280" height="80" rx="5" fill="#F7F7F7"/>
<path fill-rule="evenodd" clip-rule="evenodd" d="M232.874 32.1155C231.664 34.0017 229.547 35.2517 227.14 35.2517C224.695 35.2517 222.552 33.9622 221.351 32.0267L224.958 28.4425H213.697V39.634L216.584 36.7642C219.045 39.8833 222.858 41.8859 227.14 41.8859C231.449 41.8859 235.283 39.859 237.744 36.7063L232.874 32.1155Z" fill="#B4B6B9"/>
<path fill-rule="evenodd" clip-rule="evenodd" d="M227.14 15H216.001L218.882 17.8362C215.727 20.2961 213.696 24.1316 213.696 28.4428H220.33C220.33 25.9401 221.682 23.7559 223.694 22.5724L227.14 25.9638V15Z" fill="#3791FF"/>
<path fill-rule="evenodd" clip-rule="evenodd" d="M237.945 20.4469C235.496 17.1429 231.569 15.0002 227.14 15.0002V21.6344C229.706 21.6344 231.939 23.0548 233.1 25.1508L229.567 28.5824H240.407V18.0548L237.945 20.4469Z" fill="#1432B9"/>
<path fill-rule="evenodd" clip-rule="evenodd" d="M205.698 48.5982L205.254 48.5752C205.059 48.5752 204.896 48.6344 204.767 48.7522C204.639 48.8706 204.539 49.0371 204.471 49.2522V52.8509H203.523V47.8002H204.387L204.456 48.5607C204.562 48.2936 204.701 48.0844 204.872 47.9338C205.044 47.7831 205.241 47.7075 205.465 47.7075C205.527 47.7075 205.591 47.7127 205.657 47.7232C205.721 47.7344 205.773 47.7469 205.81 47.7634L205.698 48.5982Z" fill="#8C9196"/>
<path fill-rule="evenodd" clip-rule="evenodd" d="M208.107 48.4266C207.834 48.4266 207.614 48.5595 207.449 48.8273C207.285 49.0964 207.193 49.4345 207.174 49.8444H208.952V49.6523C208.952 49.2918 208.881 48.9977 208.737 48.7688C208.594 48.5405 208.385 48.4266 208.107 48.4266ZM208.215 52.9484C207.614 52.9484 207.133 52.7405 206.773 52.3234C206.412 51.9063 206.231 51.3727 206.231 50.7227V49.9845C206.231 49.3247 206.408 48.7806 206.761 48.351C207.114 47.922 207.563 47.7069 208.107 47.7069C208.68 47.7069 209.12 47.9023 209.428 48.2931C209.737 48.6839 209.891 49.2082 209.891 49.8681V50.5214H207.174V50.7227C207.174 51.1576 207.27 51.5181 207.461 51.803C207.652 52.0872 207.924 52.2299 208.276 52.2299C208.537 52.2299 208.761 52.1885 208.947 52.1056C209.135 52.024 209.312 51.903 209.479 51.7438L209.778 52.3326C209.62 52.5135 209.407 52.6609 209.139 52.7747C208.872 52.8911 208.563 52.9484 208.215 52.9484Z" fill="#8C9196"/>
<path fill-rule="evenodd" clip-rule="evenodd" d="M214.865 50.7871L214.879 50.816C214.876 51.4937 214.695 52.0187 214.337 52.391C213.98 52.7621 213.474 52.9483 212.821 52.9483C212.155 52.9483 211.623 52.7239 211.224 52.2759C210.826 51.8285 210.627 51.2035 210.627 50.4003V48.5147C210.627 47.7108 210.824 47.0845 211.218 46.6345C211.612 46.1825 212.136 45.9562 212.793 45.9562C213.459 45.9562 213.97 46.1397 214.329 46.5029C214.686 46.8667 214.87 47.3989 214.879 48.0989L214.865 48.1266H213.969C213.959 47.6292 213.861 47.2628 213.674 47.0279C213.487 46.793 213.194 46.6753 212.793 46.6753C212.404 46.6753 212.102 46.8332 211.887 47.1483C211.672 47.4621 211.564 47.9108 211.564 48.4943V50.397C211.564 50.9897 211.674 51.443 211.894 51.7575C212.114 52.072 212.422 52.2299 212.821 52.2299C213.212 52.2299 213.499 52.116 213.682 51.8864C213.864 51.6582 213.958 51.2917 213.964 50.7871H214.865Z" fill="#8C9196"/>
<path fill-rule="evenodd" clip-rule="evenodd" d="M217.05 50.3817H218.781L217.932 47.4133H217.904L217.05 50.3817ZM218.996 51.133H216.83L216.336 52.8508H215.374L217.465 46.0547H218.38L220.452 52.8508H219.49L218.996 51.133Z" fill="#8C9196"/>
<path fill-rule="evenodd" clip-rule="evenodd" d="M222.16 49.4431H223.444C223.801 49.4431 224.072 49.3181 224.256 49.0668C224.44 48.8155 224.531 48.4984 224.531 48.1174C224.531 47.7306 224.441 47.4102 224.258 47.1556C224.076 46.901 223.804 46.7734 223.444 46.7734H222.16V49.4431ZM222.16 50.1622V52.851H221.213V46.0549H223.444C224.079 46.0549 224.577 46.2431 224.937 46.6214C225.298 46.9977 225.479 47.4937 225.479 48.1089C225.479 48.726 225.298 49.2234 224.937 49.5984C224.577 49.9753 224.079 50.1622 223.444 50.1622H222.16Z" fill="#8C9196"/>
<path fill-rule="evenodd" clip-rule="evenodd" d="M230.431 46.7736H228.686V52.8506H227.737V46.7736H226.002V46.0546H230.431V46.7736Z" fill="#8C9196"/>
<path fill-rule="evenodd" clip-rule="evenodd" d="M235.136 50.7871L235.149 50.816C235.146 51.4937 234.965 52.0187 234.607 52.391C234.25 52.7621 233.744 52.9483 233.092 52.9483C232.425 52.9483 231.893 52.7239 231.495 52.2759C231.096 51.8285 230.897 51.2035 230.897 50.4003V48.5147C230.897 47.7108 231.094 47.0845 231.488 46.6345C231.882 46.1825 232.407 45.9562 233.063 45.9562C233.728 45.9562 234.24 46.1397 234.599 46.5029C234.957 46.8667 235.14 47.3989 235.149 48.0989L235.136 48.1266H234.24C234.23 47.6292 234.132 47.2628 233.945 47.0279C233.758 46.793 233.465 46.6753 233.063 46.6753C232.674 46.6753 232.372 46.8332 232.158 47.1483C231.943 47.4621 231.835 47.9108 231.835 48.4943V50.397C231.835 50.9897 231.944 51.443 232.165 51.7575C232.384 52.072 232.693 52.2299 233.092 52.2299C233.483 52.2299 233.77 52.116 233.952 51.8864C234.134 51.6582 234.228 51.2917 234.234 50.7871H235.136Z" fill="#8C9196"/>
<path fill-rule="evenodd" clip-rule="evenodd" d="M240.67 52.8508H239.727V49.8495H237.123V52.8508H236.176V46.0547H237.123V49.1304H239.727V46.0547H240.67V52.8508Z" fill="#8C9196"/>
<path fill-rule="evenodd" clip-rule="evenodd" d="M243.219 50.3817H244.95L244.101 47.4133H244.073L243.219 50.3817ZM245.165 51.133H242.999L242.505 52.8508H241.543L243.634 46.0547H244.549L246.621 52.8508H245.659L245.165 51.133Z" fill="#8C9196"/>
<path fill-rule="evenodd" clip-rule="evenodd" d="M200.712 60.8367H202.012C202.369 60.8367 202.635 60.7407 202.81 60.5499C202.986 60.3598 203.074 60.1183 203.074 59.8282C203.074 59.5361 202.985 59.294 202.809 59.0992C202.631 58.9045 202.366 58.8071 202.012 58.8071H200.712V60.8367ZM200.712 61.3966V63.5058H200V58.2473H202.012C202.573 58.2473 203.009 58.392 203.32 58.6808C203.63 58.9703 203.785 59.3499 203.785 59.8223C203.785 60.3012 203.63 60.6841 203.32 60.9683C203.009 61.2538 202.573 61.3966 202.012 61.3966H200.712Z" fill="#8C9196"/>
<path fill-rule="evenodd" clip-rule="evenodd" d="M206.453 60.2264L206.089 60.2047C205.901 60.2047 205.743 60.2494 205.614 60.3382C205.485 60.4277 205.386 60.5527 205.316 60.7139V63.5053H204.604V59.5987H205.24L205.309 60.1685C205.42 59.9665 205.556 59.8086 205.718 59.6948C205.881 59.5823 206.069 59.5264 206.28 59.5264C206.333 59.5264 206.384 59.5297 206.432 59.5382C206.48 59.5474 206.52 59.556 206.551 59.5658L206.453 60.2264Z" fill="#8C9196"/>
<path fill-rule="evenodd" clip-rule="evenodd" d="M207.198 63.5055H208.448V59.599H207.198V63.5055ZM207.198 58.5977H208.448V57.8713H207.198V58.5977Z" fill="#8C9196"/>
<path fill-rule="evenodd" clip-rule="evenodd" d="M210.306 62.3529L210.368 62.6279H210.39L210.458 62.3529L211.358 59.5983H212.083L210.646 63.5056H210.108L208.652 59.5983H209.382L210.306 62.3529Z" fill="#8C9196"/>
<path fill-rule="evenodd" clip-rule="evenodd" d="M213.889 62.982C214.147 62.982 214.378 62.9162 214.586 62.7833C214.793 62.6517 214.928 62.5011 214.99 62.3307V61.6965H214.192C213.905 61.6965 213.676 61.7688 213.505 61.9122C213.332 62.0563 213.245 62.2261 213.245 62.4201C213.245 62.5932 213.3 62.7294 213.409 62.8313C213.517 62.9313 213.678 62.982 213.889 62.982ZM215.07 63.5057C215.045 63.3872 215.027 63.2826 215.014 63.1925C215 63.103 214.993 63.0122 214.99 62.9201C214.859 63.1076 214.685 63.2649 214.472 63.3919C214.259 63.5182 214.03 63.5807 213.785 63.5807C213.377 63.5807 213.068 63.478 212.854 63.2695C212.641 63.0603 212.534 62.7741 212.534 62.4076C212.534 62.0346 212.685 61.7425 212.988 61.532C213.29 61.3215 213.7 61.2155 214.217 61.2155H214.99V60.83C214.99 60.6004 214.92 60.4201 214.78 60.2859C214.641 60.1517 214.444 60.0859 214.189 60.0859C213.959 60.0859 213.774 60.1438 213.63 60.2603C213.487 60.378 213.415 60.5175 213.415 60.6813H212.737L212.73 60.6596C212.715 60.3761 212.849 60.1162 213.132 59.88C213.415 59.6445 213.78 59.5261 214.228 59.5261C214.671 59.5261 215.027 59.6379 215.298 59.8642C215.567 60.0892 215.702 60.4129 215.702 60.8366V62.7188C215.702 62.8576 215.709 62.9938 215.723 63.1228C215.738 63.2524 215.764 63.38 215.803 63.5057H215.07Z" fill="#8C9196"/>
<path fill-rule="evenodd" clip-rule="evenodd" d="M218.324 63.0211C218.559 63.0211 218.767 62.9494 218.946 62.8033C219.126 62.6573 219.215 62.4797 219.215 62.2665H219.855L219.861 62.2889C219.874 62.6257 219.724 62.9251 219.412 63.1882C219.101 63.4494 218.738 63.581 218.324 63.581C217.755 63.581 217.32 63.3954 217.02 63.0251C216.719 62.654 216.568 62.1882 216.568 61.6283V61.4757C216.568 60.9198 216.72 60.4566 217.022 60.0836C217.324 59.7119 217.758 59.5264 218.324 59.5264C218.781 59.5264 219.155 59.6612 219.445 59.931C219.735 60.2001 219.875 60.5316 219.866 60.9237L219.858 60.9461H219.215C219.215 60.7066 219.132 60.504 218.963 60.3369C218.794 60.1698 218.581 60.0856 218.324 60.0856C217.951 60.0856 217.683 60.2198 217.523 60.4869C217.364 60.756 217.283 61.0849 217.283 61.4737V61.6257C217.283 62.0251 217.363 62.3573 217.522 62.6237C217.68 62.8882 217.948 63.0211 218.324 63.0211Z" fill="#8C9196"/>
<path fill-rule="evenodd" clip-rule="evenodd" d="M221.857 62.0568L221.982 62.5482H222.005L222.965 59.5989H223.756L222.113 64.1041C222.013 64.3673 221.872 64.5956 221.688 64.791C221.504 64.9857 221.256 65.0837 220.942 65.0837C220.885 65.0837 220.811 65.0772 220.722 65.0634C220.633 65.0509 220.564 65.037 220.517 65.0265L220.589 64.466C220.574 64.4634 220.617 64.466 220.717 64.4726C220.817 64.4811 220.88 64.4837 220.907 64.4837C221.057 64.4837 221.182 64.4173 221.278 64.2811C221.374 64.1476 221.455 63.9982 221.52 63.8344L221.69 63.4259L220.238 59.5989H221.033L221.857 62.0568Z" fill="#8C9196"/>
<path fill-rule="evenodd" clip-rule="evenodd" d="M225.828 61.5627H227.598V61.0062H225.828V61.5627Z" fill="#8C9196"/>
<path fill-rule="evenodd" clip-rule="evenodd" d="M233.776 58.8072H232.087V63.5059H231.375V58.8072H229.688V58.2473H233.776V58.8072Z" fill="#8C9196"/>
<path fill-rule="evenodd" clip-rule="evenodd" d="M235.607 60.0857C235.369 60.0857 235.165 60.1863 234.996 60.3857C234.827 60.5863 234.724 60.8377 234.687 61.1409L234.693 61.1587H236.496V61.0653C236.496 60.7863 236.42 60.5534 236.271 60.3666C236.121 60.1798 235.9 60.0857 235.607 60.0857ZM235.715 63.5804C235.171 63.5804 234.739 63.4008 234.416 63.037C234.095 62.6758 233.935 62.2061 233.935 61.6284V61.4692C233.935 60.9133 234.1 60.4502 234.431 60.0798C234.762 59.7107 235.154 59.5258 235.607 59.5258C236.134 59.5258 236.532 59.6857 236.802 60.0028C237.072 60.3199 237.207 60.7442 237.207 61.2738V61.7179H234.671L234.661 61.7363C234.668 62.1107 234.763 62.4186 234.945 62.6594C235.129 62.9015 235.385 63.0212 235.715 63.0212C235.955 63.0212 236.167 62.9877 236.349 62.9192C236.531 62.8502 236.688 62.7561 236.82 62.635L237.098 63.0982C236.959 63.2363 236.774 63.3515 236.546 63.4436C236.317 63.535 236.04 63.5804 235.715 63.5804Z" fill="#8C9196"/>
<path fill-rule="evenodd" clip-rule="evenodd" d="M239.854 60.2264L239.489 60.2047C239.301 60.2047 239.143 60.2494 239.014 60.3382C238.885 60.4277 238.786 60.5527 238.716 60.7139V63.5053H238.005V59.5987H238.64L238.709 60.1685C238.82 59.9665 238.957 59.8086 239.119 59.6948C239.282 59.5823 239.469 59.5264 239.681 59.5264C239.733 59.5264 239.784 59.5297 239.833 59.5382C239.881 59.5474 239.92 59.556 239.952 59.5658L239.854 60.2264Z" fill="#8C9196"/>
<path fill-rule="evenodd" clip-rule="evenodd" d="M241.176 59.5987L241.226 60.1105C241.354 59.9256 241.516 59.7816 241.712 59.6789C241.908 59.5776 242.136 59.5263 242.396 59.5263C242.656 59.5263 242.88 59.5855 243.066 59.7066C243.253 59.827 243.393 60.0079 243.487 60.248C243.61 60.0263 243.772 59.8506 243.975 59.7217C244.177 59.5901 244.412 59.5263 244.681 59.5263C245.08 59.5263 245.393 59.6625 245.625 59.9362C245.856 60.2092 245.972 60.6204 245.972 61.1691V63.5053H245.26V61.1618C245.26 60.777 245.194 60.5039 245.061 60.3434C244.929 60.1842 244.731 60.1039 244.469 60.1039C244.226 60.1039 244.029 60.1881 243.879 60.3559C243.728 60.525 243.64 60.7375 243.613 60.9954V61.0243V63.5053H242.899V61.1618C242.899 60.7954 242.83 60.5283 242.694 60.3579C242.558 60.1881 242.362 60.1039 242.107 60.1039C241.89 60.1039 241.712 60.1487 241.573 60.2375C241.433 60.327 241.326 60.4513 241.251 60.6131V63.5053H240.54V59.5987H241.176Z" fill="#8C9196"/>
<path fill-rule="evenodd" clip-rule="evenodd" d="M249.276 62.4654C249.276 62.3095 249.216 62.1792 249.097 62.0792C248.978 61.9786 248.752 61.8904 248.42 61.8161C247.945 61.7115 247.589 61.5727 247.348 61.3957C247.109 61.2187 246.989 60.9773 246.989 60.672C246.989 60.3549 247.124 60.0852 247.395 59.8615C247.664 59.6378 248.015 59.5259 248.448 59.5259C248.904 59.5259 249.265 59.643 249.534 59.8759C249.802 60.1095 249.93 60.3944 249.918 60.7279L249.911 60.7503H249.233C249.233 60.5792 249.16 60.4246 249.017 60.2891C248.874 60.1536 248.684 60.0858 248.448 60.0858C248.195 60.0858 248.008 60.1411 247.886 60.2516C247.763 60.3634 247.701 60.4957 247.701 60.6529C247.701 60.8069 247.755 60.9286 247.864 61.018C247.972 61.1062 248.193 61.1865 248.524 61.2555C249.018 61.3615 249.384 61.5055 249.626 61.6871C249.866 61.8687 249.987 62.1128 249.987 62.4187C249.987 62.7654 249.847 63.0457 249.566 63.2602C249.286 63.4746 248.919 63.5805 248.466 63.5805C247.968 63.5805 247.576 63.4549 247.289 63.2029C247.003 62.949 246.866 62.6542 246.881 62.3167L246.889 62.2957H247.566C247.58 62.547 247.673 62.7312 247.849 62.8477C248.025 62.9641 248.23 63.0213 248.466 63.0213C248.719 63.0213 248.917 62.9707 249.061 62.868C249.204 62.7654 249.276 62.6319 249.276 62.4654Z" fill="#8C9196"/>
<path fill-rule="evenodd" clip-rule="evenodd" d="M213.697 28.4425H220.331C220.331 28.0129 220.374 27.5931 220.451 27.1859H213.756C213.718 27.5997 213.697 28.0188 213.697 28.4425Z" fill="#2387F5"/>
<path fill-rule="evenodd" clip-rule="evenodd" d="M227.14 15V21.6342C227.484 21.6342 227.821 21.6618 228.152 21.7105V15.0395C227.817 15.0138 227.48 15 227.14 15Z" fill="#071EA0"/>
<path fill-rule="evenodd" clip-rule="evenodd" d="M57 51.0608C57 53.2372 55.234 55.0008 53.0552 55.0008H30.9456C28.7668 55.0008 27 53.2372 27 51.0608V28.9408C27 26.7644 28.7668 25 30.9456 25H53.0552C55.234 25 57 26.7644 57 28.9408V51.0608Z" fill="white" stroke="#FAD756"/>
<path d="M81.128 35.8V47H79.08V43.88H76.312H76.088L74.008 47H71.816L74.216 43.544C73.4373 43.256 72.8347 42.8027 72.408 42.184C71.992 41.5547 71.784 40.7973 71.784 39.912C71.784 39.0587 71.976 38.3227 72.36 37.704C72.744 37.0853 73.288 36.616 73.992 36.296C74.696 35.9653 75.5227 35.8 76.472 35.8H81.128ZM76.536 37.56C75.6827 37.56 75.0267 37.7573 74.568 38.152C74.12 38.5467 73.896 39.1227 73.896 39.88C73.896 40.616 74.1147 41.1867 74.552 41.592C74.9893 41.9867 75.624 42.184 76.456 42.184H79.08V37.56H76.536ZM88.4846 38.456H90.4846V41.928H94.7886V38.456H96.7886V47H94.7886V43.624H90.4846V47H88.4846V38.456ZM107.469 42.776C107.469 42.9147 107.458 43.112 107.437 43.368H100.733C100.85 43.9973 101.154 44.4987 101.645 44.872C102.146 45.2347 102.765 45.416 103.501 45.416C104.44 45.416 105.213 45.1067 105.821 44.488L106.893 45.72C106.509 46.1787 106.024 46.5253 105.437 46.76C104.85 46.9947 104.189 47.112 103.453 47.112C102.514 47.112 101.688 46.9253 100.973 46.552C100.258 46.1787 99.7037 45.6613 99.309 45C98.925 44.328 98.733 43.5707 98.733 42.728C98.733 41.896 98.9197 41.1493 99.293 40.488C99.677 39.816 100.205 39.2933 100.877 38.92C101.549 38.5467 102.306 38.36 103.149 38.36C103.981 38.36 104.722 38.5467 105.373 38.92C106.034 39.2827 106.546 39.8 106.909 40.472C107.282 41.1333 107.469 41.9013 107.469 42.776ZM103.149 39.96C102.509 39.96 101.965 40.152 101.517 40.536C101.08 40.9093 100.813 41.4107 100.717 42.04H105.565C105.48 41.4213 105.218 40.92 104.781 40.536C104.344 40.152 103.8 39.96 103.149 39.96ZM118.814 38.36C119.646 38.36 120.388 38.5413 121.038 38.904C121.7 39.2667 122.217 39.7787 122.59 40.44C122.964 41.1013 123.15 41.864 123.15 42.728C123.15 43.592 122.964 44.36 122.59 45.032C122.217 45.6933 121.7 46.2053 121.038 46.568C120.388 46.9307 119.646 47.112 118.814 47.112C117.662 47.112 116.75 46.728 116.078 45.96V50.104H114.078V38.456H115.982V39.576C116.313 39.1707 116.718 38.8667 117.198 38.664C117.689 38.4613 118.228 38.36 118.814 38.36ZM118.59 45.4C119.326 45.4 119.929 45.1547 120.398 44.664C120.878 44.1733 121.118 43.528 121.118 42.728C121.118 41.928 120.878 41.2827 120.398 40.792C119.929 40.3013 119.326 40.056 118.59 40.056C118.11 40.056 117.678 40.168 117.294 40.392C116.91 40.6053 116.606 40.9147 116.382 41.32C116.158 41.7253 116.046 42.1947 116.046 42.728C116.046 43.2613 116.158 43.7307 116.382 44.136C116.606 44.5413 116.91 44.856 117.294 45.08C117.678 45.2933 118.11 45.4 118.59 45.4ZM128.949 47.112C128.085 47.112 127.306 46.9253 126.613 46.552C125.92 46.1787 125.376 45.6613 124.981 45C124.597 44.328 124.405 43.5707 124.405 42.728C124.405 41.8853 124.597 41.1333 124.981 40.472C125.376 39.8107 125.92 39.2933 126.613 38.92C127.306 38.5467 128.085 38.36 128.949 38.36C129.824 38.36 130.608 38.5467 131.301 38.92C131.994 39.2933 132.533 39.8107 132.917 40.472C133.312 41.1333 133.509 41.8853 133.509 42.728C133.509 43.5707 133.312 44.328 132.917 45C132.533 45.6613 131.994 46.1787 131.301 46.552C130.608 46.9253 129.824 47.112 128.949 47.112ZM128.949 45.4C129.685 45.4 130.293 45.1547 130.773 44.664C131.253 44.1733 131.493 43.528 131.493 42.728C131.493 41.928 131.253 41.2827 130.773 40.792C130.293 40.3013 129.685 40.056 128.949 40.056C128.213 40.056 127.605 40.3013 127.125 40.792C126.656 41.2827 126.421 41.928 126.421 42.728C126.421 43.528 126.656 44.1733 127.125 44.664C127.605 45.1547 128.213 45.4 128.949 45.4ZM140.109 38.872C140.919 38.872 141.634 39.048 142.253 39.4C142.871 39.7413 143.351 40.2213 143.693 40.84C144.045 41.4587 144.221 42.168 144.221 42.968C144.221 43.7893 144.029 44.52 143.645 45.16C143.261 45.7893 142.722 46.28 142.029 46.632C141.335 46.984 140.546 47.16 139.661 47.16C138.178 47.16 137.031 46.6693 136.221 45.688C135.41 44.7067 135.005 43.2933 135.005 41.448C135.005 39.7307 135.373 38.3707 136.109 37.368C136.845 36.3653 137.97 35.704 139.485 35.384L143.453 34.536L143.741 36.328L140.141 37.064C139.106 37.2773 138.333 37.64 137.821 38.152C137.309 38.664 137.01 39.384 136.925 40.312C137.309 39.8533 137.773 39.5013 138.317 39.256C138.861 39 139.458 38.872 140.109 38.872ZM139.709 45.544C140.445 45.544 141.037 45.3093 141.485 44.84C141.943 44.36 142.173 43.752 142.173 43.016C142.173 42.28 141.943 41.688 141.485 41.24C141.037 40.792 140.445 40.568 139.709 40.568C138.962 40.568 138.359 40.792 137.901 41.24C137.442 41.688 137.213 42.28 137.213 43.016C137.213 43.7627 137.442 44.3707 137.901 44.84C138.37 45.3093 138.973 45.544 139.709 45.544ZM149.965 47.112C149.101 47.112 148.322 46.9253 147.629 46.552C146.935 46.1787 146.391 45.6613 145.997 45C145.613 44.328 145.421 43.5707 145.421 42.728C145.421 41.8853 145.613 41.1333 145.997 40.472C146.391 39.8107 146.935 39.2933 147.629 38.92C148.322 38.5467 149.101 38.36 149.965 38.36C150.839 38.36 151.623 38.5467 152.317 38.92C153.01 39.2933 153.549 39.8107 153.933 40.472C154.327 41.1333 154.525 41.8853 154.525 42.728C154.525 43.5707 154.327 44.328 153.933 45C153.549 45.6613 153.01 46.1787 152.317 46.552C151.623 46.9253 150.839 47.112 149.965 47.112ZM149.965 45.4C150.701 45.4 151.309 45.1547 151.789 44.664C152.269 44.1733 152.509 43.528 152.509 42.728C152.509 41.928 152.269 41.2827 151.789 40.792C151.309 40.3013 150.701 40.056 149.965 40.056C149.229 40.056 148.621 40.3013 148.141 40.792C147.671 41.2827 147.437 41.928 147.437 42.728C147.437 43.528 147.671 44.1733 148.141 44.664C148.621 45.1547 149.229 45.4 149.965 45.4ZM162.956 40.152H159.964V47H157.964V40.152H154.956V38.456H162.956V40.152Z" fill="#0B0F21"/>
</svg>
