<svg width="20" height="20" viewBox="0 0 20 20" fill="none" xmlns="http://www.w3.org/2000/svg">
<path fill-rule="evenodd" clip-rule="evenodd" d="M5.76577 0C2.58559 0 0 2.58559 0 5.76577V14.1081C0 17.2883 2.58559 19.8739 5.76577 19.8739H14.1532C17.3333 19.8739 19.9189 17.2883 19.9189 14.1081V5.77477C19.9189 2.59459 17.3333 0.00900901 14.1532 0.00900901L5.76577 0ZM5.76597 1.71191H14.1534C16.4146 1.71191 18.2164 3.50471 18.2164 5.77498V14.1083C18.2164 16.3696 16.4236 18.1624 14.1534 18.1624H5.76597C3.50471 18.1624 1.71191 16.3696 1.71191 14.1083V5.77498C1.71191 3.50471 3.50471 1.71191 5.76597 1.71191ZM14.1079 4.62203C14.1079 3.95536 14.6485 3.42383 15.3061 3.42383C15.9728 3.42383 16.5043 3.95536 16.5043 4.62203C16.5043 5.28869 15.9638 5.82022 15.3061 5.82022C14.6394 5.82022 14.1079 5.27968 14.1079 4.62203ZM9.9638 4.81934C7.14398 4.81934 4.84668 7.11663 4.84668 9.93645C4.84668 12.7563 7.14398 15.0536 9.9638 15.0536C12.7836 15.0536 15.0809 12.7563 15.0809 9.93645C15.0809 7.12564 12.7836 4.81934 9.9638 4.81934ZM13.3694 9.93666C13.3694 8.04476 11.8559 6.53125 9.964 6.53125C8.07211 6.53125 6.55859 8.04476 6.55859 9.93666C6.55859 11.8285 8.07211 13.3421 9.964 13.3421C11.8559 13.3421 13.3694 11.8285 13.3694 9.93666Z" fill="white"/>
</svg>
