<svg width="25" height="20" viewBox="0 0 25 20" fill="none" xmlns="http://www.w3.org/2000/svg">
<path fill-rule="evenodd" clip-rule="evenodd" d="M15.2456 19.1324H13.2934C13.2687 19.1324 13.2486 19.1123 13.2486 19.0876V18.1952C13.2486 18.1708 13.2687 18.1504 13.2934 18.1504H15.2008C15.2255 18.1504 15.2456 18.1708 15.2456 18.1952V19.1324ZM22.3721 10.4437H20.7842V8.53837C20.7842 3.83043 16.9541 0 12.2458 0C7.53791 0 3.70781 3.83043 3.70781 8.53837V9.38489H4.57542V8.53837C4.57542 4.30874 8.01655 0.867616 12.2458 0.867616C16.4755 0.867616 19.9166 4.30874 19.9166 8.53837V10.4437V11.3113V17.0998C19.9166 18.2206 19.0048 19.1324 17.884 19.1324H16.1132V18.1952C16.1132 17.6922 15.7041 17.2831 15.2008 17.2831H13.2934C12.7904 17.2831 12.3813 17.6922 12.3813 18.1952V19.0876C12.3813 19.5909 12.7904 20 13.2934 20H17.884C19.4831 20 20.7842 18.6989 20.7842 17.0998V11.3113H22.3721C23.0624 11.3113 23.6244 11.8734 23.6244 12.5636V15.4137C23.6244 16.1043 23.0624 16.666 22.3721 16.666H21.9383V17.5336H22.3721C23.541 17.5336 24.492 16.5826 24.492 15.4137V12.5636C24.492 11.3947 23.541 10.4437 22.3721 10.4437V10.4437ZM3.7077 16.666H2.38721C1.54929 16.666 0.867616 15.9843 0.867616 15.1464V12.831C0.867616 11.993 1.54929 11.3113 2.38721 11.3113H3.7077V16.666ZM0 12.831V15.1464C0 16.4626 1.071 17.5336 2.38726 17.5336H4.57542V10.4437H2.38726C1.071 10.4437 0 11.5147 0 12.831V12.831Z" fill="black"/>
</svg>
