<svg width="60" height="60" viewBox="0 0 60 60" fill="none" xmlns="http://www.w3.org/2000/svg">
<path fill-rule="evenodd" clip-rule="evenodd" d="M21.1674 41.071H26.5549C27.4207 41.071 28.125 41.7754 28.125 42.6411V48.0319C28.125 48.8976 27.4207 49.6019 26.5549 49.6019H21.1674C20.2998 49.6019 19.594 48.8976 19.594 48.0319V42.6411C19.594 41.7754 20.2998 41.071 21.1674 41.071ZM21.3484 47.8477H26.3706V42.8254H21.3484V47.8477Z" fill="#0B0F21"/>
<path fill-rule="evenodd" clip-rule="evenodd" d="M51.52 41.2998H57.7891C58.9437 41.2998 59.883 42.2375 59.8833 43.3904V46.7588C59.8833 47.9135 58.944 48.8527 57.7894 48.8527H48.9798L48.9766 48.853L48.972 48.8527H38.1284L38.1253 48.853L38.1207 48.8527H32.3753V56.8807C32.3753 58.5361 31.0284 59.883 29.373 59.883H22.8881H6.7786C5.55462 59.883 4.55871 58.8873 4.55871 57.6632V55.3557C4.55871 54.1317 5.5545 53.1358 6.7786 53.1358H11.3518V45.0316C11.3518 44.5471 11.7446 44.1544 12.229 44.1544C12.7135 44.1544 13.1062 44.5471 13.1062 45.0316V53.1357H15.9105V28.9524C15.4495 28.9967 14.9825 29.0202 14.5101 29.0202C14.0365 29.0202 13.5684 28.9966 13.1063 28.952V40.9834C13.1063 41.4678 12.7136 41.8606 12.2291 41.8606C11.7447 41.8606 11.3519 41.4678 11.3519 40.9834V28.673C4.86468 27.2274 0 21.4265 0 14.5101C0 6.50912 6.50912 0 14.5101 0C22.511 0 29.0201 6.50912 29.0201 14.5101C29.0201 21.4277 24.1538 27.2294 17.6649 28.6737V33.4403C19.2623 32.0408 21.3206 31.2474 23.4981 31.2474C24.9432 31.2474 26.3792 31.6064 27.6511 32.2858C28.0785 32.514 28.2399 33.0455 28.0116 33.4729C27.7834 33.9002 27.2519 34.0615 26.8246 33.8333C25.8061 33.2894 24.6559 33.0019 23.4981 33.0019C21.167 33.0019 19.0051 34.1368 17.6649 36.0503V53.1358H22.8881C24.1104 53.1358 25.1047 54.1316 25.1047 55.3557V57.6632C25.1047 57.8228 25.0869 57.9784 25.0547 58.1287H29.373C30.0612 58.1287 30.6209 57.5688 30.6209 56.8807V40.1249C30.6209 38.6912 30.1892 37.3035 29.3723 36.1119C29.0984 35.7123 29.2001 35.1663 29.5998 34.8924C29.9994 34.6184 30.5454 34.7204 30.8192 35.1199C31.8372 36.6048 32.3753 38.3354 32.3753 40.1248V41.2998H40.6599H40.6688H51.5111H51.52ZM14.5101 1.75439C7.47661 1.75439 1.75439 7.47661 1.75439 14.5101C1.75439 21.5435 7.47661 27.2657 14.5101 27.2657C15.2237 27.2657 15.9235 27.2058 16.6056 27.0926C16.6149 27.0907 16.6244 27.0893 16.6339 27.0878L16.6467 27.0858C22.6664 26.0662 27.2657 20.8156 27.2657 14.5101C27.2657 7.47661 21.5435 1.75439 14.5101 1.75439ZM6.3131 57.6632V55.3557C6.3131 55.0989 6.52199 54.8902 6.7786 54.8902H22.8881C23.1386 54.8902 23.3503 55.1034 23.3503 55.3557V57.6632C23.3503 57.9156 23.1386 58.1287 22.8881 58.1287H6.7786C6.5262 58.1287 6.3131 57.9154 6.3131 57.6632ZM41.2295 43.0542L39.4653 47.0984H48.4026L50.1668 43.0542H41.2295ZM32.3753 43.0542H39.3156L37.5513 47.0984H32.3753V43.0542ZM57.7891 47.0984C57.9732 47.0984 58.1287 46.9429 58.1287 46.7588H58.1285V43.3904C58.1285 43.2081 57.9731 43.0542 57.789 43.0542H52.0807L50.3165 47.0984H57.7891Z" fill="#0B0F21"/>
<path fill-rule="evenodd" clip-rule="evenodd" d="M17.3355 9.48811C17.9215 10.1147 18.2186 10.8806 18.2186 11.7648C18.2186 12.6262 17.9023 13.3793 17.2788 14.0031C16.6712 14.6151 15.9057 14.9397 15.0671 14.9397H13.2138C13.1866 14.9397 13.1603 14.9401 13.1351 14.9405C13.1279 14.9406 13.1208 14.9408 13.1138 14.9409L13.1037 14.941C13.0763 14.9414 13.047 14.9419 13.0162 14.9419C12.7627 14.9419 12.4018 14.9123 12.1059 14.6214C11.885 14.4043 11.7729 14.1123 11.7729 13.7541V9.65957C11.7729 8.97817 12.2114 8.71103 12.4 8.62788C12.6434 8.52051 12.8769 8.52051 13.1242 8.52051H15.0903C15.9796 8.52051 16.7351 8.846 17.3355 9.48811ZM15.067 13.1852C15.4431 13.1852 15.751 13.0516 16.0359 12.7647C16.3287 12.4719 16.4642 12.1548 16.4642 11.7648C16.4642 11.3282 16.3339 10.9855 16.0541 10.6865C15.7879 10.4018 15.4906 10.2749 15.0901 10.2749H13.5272V13.1852H15.067Z" fill="#0B0F21"/>
<path fill-rule="evenodd" clip-rule="evenodd" d="M22.134 11.7417C22.134 13.6663 21.5178 15.2525 20.3026 16.4561C19.0906 17.6604 17.4782 18.2716 15.5113 18.2715H13.5273V21.217C13.5273 21.9601 13.2436 22.6367 12.7067 23.1734C12.1645 23.7156 11.5063 23.9906 10.7503 23.9906C9.99444 23.9906 9.3362 23.7156 8.79397 23.1734C8.25713 22.6367 7.97339 21.9429 7.97339 21.1673V7.9886C7.97339 7.20252 8.2597 6.49819 8.80134 5.952C9.36064 5.39738 10.0381 5.1189 10.8199 5.1189H15.2758C17.2696 5.1189 18.9261 5.73749 20.1994 6.95749C21.4833 8.19153 22.134 9.80088 22.134 11.7417ZM11.7729 17.3945C11.7729 16.91 12.1657 16.5173 12.6501 16.5173V16.5171H15.5112C17.019 16.5171 18.1822 16.0898 19.067 15.2105C19.9506 14.3354 20.3796 13.201 20.3796 11.7416C20.3796 10.2762 19.9232 9.12533 18.9846 8.22322C18.0369 7.31515 16.8234 6.87328 15.2758 6.87328H10.8199C10.5046 6.87328 10.2645 6.97176 10.0418 7.19258C9.8293 7.40697 9.72777 7.66159 9.72777 7.9886V21.1674C9.72777 21.4804 9.8252 21.7237 10.0344 21.9329C10.2443 22.1428 10.4651 22.2363 10.7503 22.2363C11.0356 22.2363 11.2564 22.1428 11.4663 21.9329C11.6755 21.7237 11.7729 21.4962 11.7729 21.2171V17.3945Z" fill="#0B0F21"/>
</svg>
