<svg width="84" height="22" viewBox="0 0 84 22" fill="none" xmlns="http://www.w3.org/2000/svg">
<path fill-rule="evenodd" clip-rule="evenodd" d="M12.9497 0C13.1391 1.32407 12.6168 2.62017 11.9301 3.53753C11.1939 4.52049 9.92619 5.28184 8.70085 5.24237C8.47712 3.97518 9.0514 2.67112 9.74735 1.79174C10.514 0.823238 11.8275 0.0804153 12.9497 0ZM16.6393 18.6284C17.2725 17.626 17.508 17.1197 18 15.9854C14.4266 14.5809 13.8523 9.32669 17.3887 7.31094C16.3092 5.91034 14.7944 5.10081 13.3648 5.10081C12.333 5.10081 11.626 5.37906 10.9835 5.63195C10.4484 5.84257 9.95803 6.03559 9.36188 6.03559C8.71765 6.03559 8.14699 5.8239 7.54923 5.60216C6.89187 5.35831 6.20173 5.10229 5.34492 5.10229C3.73785 5.10229 2.02961 6.11805 0.946238 7.85327C-0.578 10.2948 -0.319715 14.8876 2.15181 18.8011C3.03568 20.2004 4.21613 21.7744 5.75943 21.7892C6.39873 21.7952 6.82453 21.5979 7.28531 21.3843C7.81336 21.1395 8.38736 20.8734 9.38129 20.8678C10.381 20.862 10.9453 21.131 11.4661 21.3793C11.915 21.5932 12.3315 21.7918 12.9665 21.7857C14.5098 21.771 15.7552 20.0282 16.6393 18.6284Z" fill="#0B0F21"/>
<path fill-rule="evenodd" clip-rule="evenodd" d="M54.5831 9.82109C54.5831 10.6751 55.0672 11.1371 56.578 11.725C58.5177 12.4937 59.3084 13.4216 59.3084 14.9259C59.3084 16.3853 58.322 18.0893 55.5398 18.0893C54.5654 18.0893 53.4152 17.7928 52.804 17.3828L52.7241 17.3297L53.1586 15.9414L53.2991 16.0318C53.9555 16.4543 54.8059 16.6963 55.6323 16.6963C56.901 16.6963 57.6899 16.0601 57.6899 15.0349C57.6899 14.129 57.1786 13.6007 55.8048 13.0851C53.8664 12.3771 52.9635 11.3893 52.9635 9.97632C52.9635 8.22418 54.4053 7 56.4697 7C57.783 7 58.5559 7.37144 58.8271 7.53108L58.9174 7.58417L58.4606 8.94116L58.3234 8.85611C58.1426 8.74332 57.4717 8.37702 56.4231 8.37702C55.1519 8.37702 54.5831 9.10209 54.5831 9.82109ZM28.9227 10.4543C28.7524 9.91606 28.62 9.41787 28.4973 8.93822C28.3671 9.46838 28.2273 9.9708 28.0801 10.4358L27.1143 13.3039H29.9022L28.9227 10.4543ZM24 17.9182L27.6348 7.17103H29.445L33.0955 17.9182H31.385L30.269 14.6182H26.7496L25.6644 17.9182H24ZM39.4847 13.9766C39.4847 12.646 38.8389 11.3034 37.3958 11.3034C36.4872 11.3034 35.6858 11.9524 35.4444 12.8826C35.4397 12.9148 35.4336 12.9477 35.4275 12.9807L35.4275 12.9808L35.4212 13.0147L35.4196 13.0238L35.4196 13.0239C35.395 13.1602 35.3698 13.3002 35.3698 13.4161V14.7237C35.3698 14.9296 35.3898 15.1122 35.4272 15.25C35.6456 16.1398 36.4289 16.7589 37.3343 16.7589C38.6606 16.7589 39.4847 15.6927 39.4847 13.9766ZM35.2255 11.1972C35.8135 10.3847 36.6964 9.95703 37.799 9.95703C38.7307 9.95703 39.5752 10.3481 40.1782 11.0585C40.7938 11.7841 41.1186 12.7719 41.1186 13.9141C41.1186 15.207 40.7446 16.289 40.0355 17.0418C39.4004 17.7171 38.5288 18.0893 37.5825 18.0893C36.674 18.0893 35.872 17.7378 35.3698 17.1342V21H33.7509V12.7162C33.7509 11.6638 33.7328 10.9308 33.6891 10.2649L33.6803 10.1282H35.161L35.2255 11.1972ZM45.732 11.3034C47.1743 11.3034 47.8203 12.646 47.8203 13.9766C47.8203 15.6927 46.9957 16.7589 45.6701 16.7589C44.7651 16.7589 43.981 16.1398 43.763 15.25C43.7255 15.1122 43.706 14.9296 43.706 14.7237V13.4161C43.706 13.2969 43.7319 13.1527 43.7576 13.0133C43.7656 12.9695 43.7736 12.9258 43.781 12.8826C44.0215 11.9524 44.8232 11.3034 45.732 11.3034ZM46.1348 9.95703C45.0326 9.95703 44.1497 10.3847 43.5611 11.1972L43.4966 10.1282H42.0165L42.0247 10.2649C42.0686 10.9316 42.0871 11.6638 42.0871 12.7162V21H43.706V17.1342C44.2082 17.7378 45.0096 18.0893 45.9181 18.0893C46.8642 18.0893 47.736 17.7171 48.3722 17.0418C49.0802 16.289 49.4545 15.207 49.4545 13.9141C49.4545 12.7719 49.1292 11.7841 48.5136 11.0585C47.911 10.3481 47.0664 9.95703 46.1348 9.95703ZM62.2225 8.27672L60.6347 8.77749V10.1282H59.4725V11.4277H60.6347V15.4085C60.6347 16.3709 60.8179 17.0453 61.1952 17.4717C61.557 17.8699 62.1131 18.0893 62.7614 18.0893C63.3734 18.0893 63.8081 17.9678 64.0127 17.8951L64.1034 17.8629L64.0259 16.5611L63.8706 16.6088C63.6658 16.672 63.4558 16.6963 63.1175 16.6963C62.4904 16.6963 62.2225 16.2976 62.2225 15.3617V11.4277H64.1753V10.1282H62.2225V8.27672ZM70.2593 13.9924C70.2593 12.6668 69.5963 11.2409 68.14 11.2409C66.6446 11.2409 65.9747 12.6466 65.9747 14.0394C65.9747 15.6422 66.8661 16.8056 68.0936 16.8056H68.1093C69.3545 16.8056 70.2593 15.6224 70.2593 13.9924ZM64.3403 14.0853C64.3403 11.6553 65.9218 9.95703 68.1868 9.95703C69.2777 9.95703 70.2139 10.3421 70.893 11.0693C71.568 11.7935 71.9246 12.7879 71.9246 13.9453C71.9246 16.7925 69.931 18.0893 68.0778 18.0893H68.0628C65.8708 18.0893 64.3403 16.4429 64.3403 14.0853ZM76.8827 10.0327L76.7856 10.0079C76.643 9.97209 76.5267 9.95703 76.3831 9.95703C75.5362 9.95703 74.7763 10.458 74.3535 11.2661L74.3059 10.1282H72.8533L72.8626 10.2649C72.9058 10.9086 72.9237 11.6313 72.9237 12.6064L72.9087 17.9182H74.5274V13.7743C74.5274 13.5486 74.5427 13.3353 74.572 13.1439C74.7545 12.1486 75.4233 11.5053 76.2752 11.5053C76.4353 11.5053 76.5624 11.5179 76.6955 11.5312L76.7095 11.5326L76.8827 11.5504V10.0327ZM81.6027 11.634C81.3072 11.332 80.9072 11.1788 80.4144 11.1788C79.2033 11.1788 78.6187 12.2088 78.4683 13.1479H82.1602C82.1499 12.8114 82.0684 12.1102 81.6027 11.634ZM76.8621 14.1478C76.8621 11.6713 78.3672 9.9416 80.5221 9.9416C82.8924 9.9416 83.7333 11.9226 83.7333 13.6189C83.7333 13.9097 83.7176 14.1324 83.6847 14.2975L83.6637 14.4015L78.4387 14.3857C78.538 16.5102 80.16 16.7433 80.8634 16.7433C81.8637 16.7433 82.4502 16.5592 82.8913 16.3788L83.0265 16.3243L83.3376 17.5358L83.2401 17.58C82.7439 17.8051 81.8959 18.0738 80.6772 18.0738C78.3593 18.0738 76.8621 16.5324 76.8621 14.1478Z" fill="#0B0F21"/>
</svg>
