<svg width="90" height="102" viewBox="0 0 90 102" fill="none" xmlns="http://www.w3.org/2000/svg">
<path d="M89.0357 56.6429C89.0357 81.1604 69.1604 101.036 44.6429 101.036C20.1254 101.036 0.25 81.1604 0.25 56.6429C0.25 32.1254 20.1254 12.25 44.6429 12.25C69.1604 12.25 89.0357 32.1254 89.0357 56.6429Z" fill="white" fill-opacity="0.2" stroke="white" stroke-width="0.5"/>
<path fill-rule="evenodd" clip-rule="evenodd" d="M66.8597 72.7685H68.0883C68.9094 72.7685 69.5746 72.1033 69.5746 71.2822V47.5361C69.5746 46.7151 68.9094 46.0498 68.0883 46.0498H28.0361C27.215 46.0498 26.5498 46.7151 26.5498 47.5361V71.2822C26.5498 72.1033 27.215 72.7685 28.0361 72.7685H49.9291H66.8597Z" stroke="white" stroke-linecap="square"/>
<path d="M26.5 68.7187H23.9863C23.1652 68.7187 22.5 68.0534 22.5 67.2324V43.4863C22.5 42.6652 23.1652 42 23.9863 42H64.0385C64.8596 42 65.5248 42.6652 65.5248 43.4863C65.5248 43.4863 65.5248 45.0183 65.5248 46" stroke="white" stroke-linecap="square"/>
<path d="M26.5498 51.6322H69.5752" stroke="white" stroke-linecap="square"/>
<path d="M26.5498 57.3162H69.5748" stroke="white" stroke-linecap="square"/>
<path fill-rule="evenodd" clip-rule="evenodd" d="M58.1245 63.0701C56.6751 63.0701 55.5 64.2457 55.5 65.6955C55.5 67.1463 56.6752 68.3219 58.1245 68.3219C58.7959 68.3219 59.4071 68.0707 59.8714 67.6564C60.0611 67.4872 60.3475 67.4872 60.5372 67.6564C61.0014 68.0707 61.6124 68.3219 62.2832 68.3219C63.7336 68.3219 64.9087 67.1462 64.9087 65.6955C64.9087 64.2458 63.7337 63.0701 62.2832 63.0701C61.6124 63.0701 61.0014 63.3212 60.5372 63.7354C60.3475 63.9047 60.0611 63.9047 59.8714 63.7355C59.4071 63.3213 58.7959 63.0701 58.1245 63.0701ZM54.5 65.6955C54.5 63.6938 56.1225 62.0701 58.1245 62.0701C58.8981 62.0701 59.6156 62.3127 60.2042 62.7255C60.7927 62.3127 61.51 62.0701 62.2832 62.0701C64.2861 62.0701 65.9087 63.6937 65.9087 65.6955C65.9087 67.6981 64.2862 69.3219 62.2832 69.3219C61.5101 69.3219 60.7927 69.0792 60.2042 68.6664C59.6156 69.0792 58.8981 69.3219 58.1245 69.3219C56.1224 69.3219 54.5 67.698 54.5 65.6955Z" fill="white"/>
<path fill-rule="evenodd" clip-rule="evenodd" d="M25.8025 2.96813C23.6846 2.96813 21.5795 2.53519 19.6649 1.64017C18.7486 1.21556 17.8106 0.674385 17 0C16.1894 0.674385 15.2514 1.21556 14.3342 1.64017C12.4205 2.53519 10.3154 2.96813 8.19752 2.96813H4V18.4415C4 21.1516 5.11623 23.7575 7.10209 25.6433C10.0183 28.4074 17 32 17 32C17 32 23.9817 28.4074 26.8975 25.6433C28.8838 23.7575 30 21.1516 30 18.4415V2.96813H25.8025Z" fill="#FAD756"/>
<path fill-rule="evenodd" clip-rule="evenodd" d="M20.6645 19.2857H21.7163C23.5296 19.2857 25 17.8016 25 15.9712C25 14.1408 23.5296 12.6563 21.7163 12.6563H21.7121C21.7121 10.6372 20.0902 9 18.0897 9C16.5498 9 15.2372 9.97445 14.7134 11.3443C14.421 11.2084 14.097 11.1298 13.7541 11.1298C12.4836 11.1298 11.4528 12.1701 11.4528 13.4526C11.4528 13.5569 11.4612 13.6565 11.4738 13.7542C10.0855 13.8924 9 15.0752 9 16.5125C9 18.0435 10.2306 19.2857 11.7473 19.2857H13.3355H20.6645Z" stroke="#0B0F21" stroke-width="1.5"/>
</svg>
