<svg width="16" height="16" viewBox="0 0 16 16" fill="none" xmlns="http://www.w3.org/2000/svg">
<path fill-rule="evenodd" clip-rule="evenodd" d="M4.53554 11.5355C5.51182 12.5118 6.79137 13 8.07099 13C9.35061 13 10.6302 12.5119 11.6066 11.5355L13.3743 9.76774L15.0145 8.1276C15.0849 8.05715 15.0849 7.9428 15.0144 7.87229L13.3744 6.23228L11.6066 4.46447C10.6303 3.48814 9.3506 2.99994 8.07104 3.00001C6.79142 3.00001 5.51186 3.4881 4.53551 4.46444C3.55917 5.44079 3.07102 6.72041 3.07102 8.00003C3.07095 9.27959 3.5592 10.5592 4.53554 11.5355Z" fill="#FAD756"/>
<path d="M4.53554 11.5355C5.51182 12.5118 6.79137 13 8.07099 13C9.35061 13 10.6302 12.5119 11.6066 11.5355L13.3743 9.76774L15.0145 8.1276C15.0849 8.05715 15.0849 7.9428 15.0144 7.87229L13.3744 6.23228L11.6066 4.46447C10.6303 3.48814 9.3506 2.99994 8.07104 3.00001C6.79142 3.00001 5.51186 3.4881 4.53551 4.46444C3.55917 5.44079 3.07102 6.72041 3.07102 8.00003C3.07095 9.27959 3.5592 10.5592 4.53554 11.5355" stroke="#0B0F21"/>
</svg>
