<svg width="21" height="21" viewBox="0 0 21 21" fill="none" xmlns="http://www.w3.org/2000/svg">
<path fill-rule="evenodd" clip-rule="evenodd" d="M20.3793 0.111045C19.9883 0.276045 0.657952 8.42017 0.277302 8.58104C-0.0458479 8.71717 -0.117148 9.05129 0.265802 9.23554C0.722352 9.45417 4.5875 11.3063 4.5875 11.3063L7.15085 12.5342C7.15085 12.5342 19.4904 1.69917 19.6583 1.55342C19.8262 1.40629 20.0194 1.68267 19.8975 1.84079C19.7756 2.00029 10.9355 13.4307 10.9355 13.4307V13.432L10.4203 14.1168L11.1023 14.5554C11.1023 14.5554 16.3969 17.964 16.7752 18.206C17.1053 18.4178 17.5354 18.2418 17.6308 17.7495C17.7435 17.1693 20.8692 1.05704 20.9394 0.699545C21.0279 0.23067 20.7715 -0.0539554 20.3793 0.111045ZM7.1267 19.8877C7.1267 20.2245 7.28425 20.3167 7.5039 20.0802C7.7891 19.7694 10.7481 16.5959 10.7481 16.5959L7.12785 14.356V19.8877H7.1267Z" fill="#FAD756"/>
</svg>
