<svg width="16" height="17" viewBox="0 0 16 17" fill="none" xmlns="http://www.w3.org/2000/svg">
<path fill-rule="evenodd" clip-rule="evenodd" d="M3 1.375V0.375H5V1.375H11V0.375H13V1.375H14.006C15.106 1.375 16 2.267 16 3.367V14.383C16 15.482 15.107 16.375 14.006 16.375H1.994C0.893999 16.375 0 15.483 0 14.383V3.367C0 2.269 0.893 1.375 1.994 1.375H3ZM2 5.375V14.375H14V5.375H2ZM4 7.375V9.375H6V7.375H4ZM7 7.375V9.375H9V7.375H7ZM10 7.375V9.375H12V7.375H10ZM4 10.375V12.375H6V10.375H4ZM7 10.375V12.375H9V10.375H7ZM10 10.375V12.375H12V10.375H10Z" fill="#0B0F21"/>
</svg>
