<svg width="93" height="103" viewBox="0 0 93 103" fill="none" xmlns="http://www.w3.org/2000/svg">
<path d="M91.753 56.7811C91.3216 81.4921 70.9398 101.175 46.2288 100.743C21.5178 100.312 1.83527 79.9301 2.26661 55.2191C2.69794 30.5081 23.0798 10.8256 47.7908 11.2569C72.5018 11.6882 92.1843 32.0701 91.753 56.7811Z" fill="white" fill-opacity="0.2" stroke="white" stroke-width="0.5"/>
<path d="M2.00537 55.938L44.9054 101.166" stroke="white" stroke-linecap="square"/>
<path d="M60.7605 98.7837L41.6615 78.6397L63.1419 58.1635C69.9639 63.8811 79.0324 66.8786 88.5716 65.7554C88.9973 65.7057 89.4223 65.6475 89.8382 65.5815" stroke="white" stroke-linecap="square"/>
<path d="M56.9124 13.7561C52.5605 20.1712 50.4229 28.1216 51.3995 36.4174C51.9462 41.053 53.4089 45.3529 55.6021 49.1591L33.5195 70.0623L5.22495 40.229" stroke="white" stroke-linecap="square"/>
<path d="M71.9974 20.6689C68.6345 24.2579 66.8176 29.2569 67.4382 34.528C68.5577 44.0343 77.1762 50.8365 86.6825 49.717C87.8272 49.5822 88.9335 49.3416 89.9929 48.9882" stroke="white" stroke-linecap="square"/>
<path fill-rule="evenodd" clip-rule="evenodd" d="M38.912 13.9557C38.912 16.1394 38.4102 18.2064 37.5159 20.0477C35.2537 24.703 24.9563 39.1062 24.9563 39.1062C24.9563 39.1062 14.9041 24.8648 12.5755 20.4028C11.5695 18.474 11 16.2819 11 13.9557C11 6.24776 17.2484 0 24.9563 0C32.6637 0 38.912 6.24776 38.912 13.9557Z" fill="#FAD756"/>
<path fill-rule="evenodd" clip-rule="evenodd" d="M28.6025 15.4864C29.2379 14.9717 29.5553 14.2321 29.5553 13.2659C29.5553 12.3009 29.2379 11.5608 28.6025 11.046C27.967 10.5306 27.0455 10.2739 25.8385 10.2739H22.5987V16.2585H25.8385C27.0455 16.2585 27.967 16.0018 28.6025 15.4864ZM29.9749 9.85433C30.966 10.6807 31.4616 11.8175 31.4616 13.2659C31.4616 14.7149 30.966 15.8517 29.9749 16.6775C28.9837 17.5038 27.6241 17.917 25.8959 17.917H22.5987V21.9577H20.6924V8.61539H25.8959C27.6241 8.61539 28.9837 9.02858 29.9749 9.85433Z" fill="#0B0F21"/>
</svg>
