<svg width="60" height="60" viewBox="0 0 60 60" fill="none" xmlns="http://www.w3.org/2000/svg">
<path d="M37.9999 39C37.9999 38.448 37.5519 38 37 38C36.448 38 36 38.448 36 39V41C36 41.552 36.448 42 37 42C37.5519 42 37.9999 41.552 37.9999 41V39Z" fill="#0B0F21"/>
<path d="M37 50C36.448 50 36 50.448 36 51V54.9999C36 55.5519 36.448 55.9999 37 55.9999C37.5519 55.9999 37.9999 55.5519 37.9999 54.9999V51C38 50.448 37.552 50 37 50Z" fill="#0B0F21"/>
<path d="M41.9999 27C41.9999 26.448 41.5519 26 41 26C40.448 26 40 26.448 40 27V29C40 29.552 40.448 30 41 30C41.5519 30 41.9999 29.552 41.9999 29V27Z" fill="#0B0F21"/>
<path d="M37.9999 33C37.9999 32.448 37.5519 32 37 32C36.448 32 36 32.448 36 33V35C36 35.552 36.448 36 37 36C37.5519 36 37.9999 35.552 37.9999 35V33Z" fill="#0B0F21"/>
<path d="M38 45C38 44.448 37.552 44 37.0001 44C36.4481 44 36 44.448 36 45V47C36 47.552 36.448 48 37 48C37.5519 48 37.9999 47.552 37.9999 47V45H38Z" fill="#0B0F21"/>
<path d="M41.9999 33C41.9999 32.448 41.5519 32 41 32C40.448 32 40 32.448 40 33V35C40 35.552 40.448 36 41 36C41.5519 36 41.9999 35.552 41.9999 35V33Z" fill="#0B0F21"/>
<path d="M33.9999 27C33.9999 26.448 33.5519 26 33 26C32.448 26 32 26.448 32 27V29C32 29.552 32.448 30 33 30C33.5519 30 33.9999 29.552 33.9999 29V27Z" fill="#0B0F21"/>
<path d="M37.9999 27C37.9999 26.448 37.5519 26 37 26C36.448 26 36 26.448 36 27V29C36 29.552 36.448 30 37 30C37.5519 30 37.9999 29.552 37.9999 29V27Z" fill="#0B0F21"/>
<path d="M41.9999 17V15C41.9999 14.448 41.5519 14 41 14C40.448 14 40 14.448 40 15V17C40 17.552 40.448 18 41 18C41.5519 18 41.9999 17.552 41.9999 17Z" fill="#0B0F21"/>
<path d="M33.9999 33C33.9999 32.448 33.5519 32 33 32C32.448 32 32 32.448 32 33V35C32 35.552 32.448 36 33 36C33.5519 36 33.9999 35.552 33.9999 35V33Z" fill="#0B0F21"/>
<path d="M45.9999 15C45.9999 14.448 45.5519 14 45 14C44.448 14 44 14.448 44 15V17C44 17.552 44.448 18 45 18C45.5519 18 45.9999 17.552 45.9999 17V15Z" fill="#0B0F21"/>
<path d="M33 38C32.448 38 32 38.448 32 39V41C32 41.552 32.448 42 33 42C33.5519 42 33.9999 41.552 33.9999 41V39C33.9999 38.448 33.5519 38 33 38Z" fill="#0B0F21"/>
<path d="M50 45C50 44.448 49.552 44 49.0001 44C48.4481 44 48 44.448 48 45V47C48 47.552 48.448 48 49 48C49.5519 48 49.9999 47.552 49.9999 47V45H50Z" fill="#0B0F21"/>
<path d="M49 50C48.448 50 48 50.448 48 51V54.9999C48 55.5519 48.448 55.9999 49 55.9999C49.5519 55.9999 49.9999 55.5519 49.9999 54.9999V51C50 50.448 49.552 50 49 50Z" fill="#0B0F21"/>
<path d="M53 38C52.448 38 52 38.448 52 39V41C52 41.552 52.448 42 53 42C53.5519 42 53.9999 41.552 53.9999 41V39C53.9999 38.448 53.5519 38 53 38Z" fill="#0B0F21"/>
<path d="M37 18C37.5519 18 37.9999 17.552 37.9999 17V12.7811L48 10.281V27C48 27.417 48.259 27.79 48.649 27.937L56 30.693V41C56 41.552 56.448 42 57 42C57.552 42 58 41.552 58 41V30C58 29.583 57.741 29.21 57.351 29.063L49.9999 26.307V6.99996C49.9999 6.44801 49.5519 6 49 6C48.448 6 48 6.44801 48 6.99996V8.21895L36.757 11.0299C36.3121 11.1409 36 11.541 36 11.9999V16.9999C36 17.552 36.448 18 37 18Z" fill="#0B0F21"/>
<path d="M53.9999 33C53.9999 32.448 53.5519 32 53 32C52.448 32 52 32.448 52 33V35C52 35.552 52.448 36 53 36C53.5519 36 53.9999 35.552 53.9999 35V33Z" fill="#0B0F21"/>
<path d="M49.9999 33C49.9999 32.448 49.5519 32 49 32C48.448 32 48 32.448 48 33V35C48 35.552 48.448 36 49 36C49.5519 36 49.9999 35.552 49.9999 35V33Z" fill="#0B0F21"/>
<path d="M41.9999 45C41.9999 44.448 41.5519 44 41 44C40.448 44 40 44.448 40 45V47C40 47.552 40.448 48 41 48C41.5519 48 41.9999 47.552 41.9999 47V45Z" fill="#0B0F21"/>
<path d="M49.9999 39C49.9999 38.448 49.5519 38 49 38C48.448 38 48 38.448 48 39V41C48 41.552 48.448 42 49 42C49.5519 42 49.9999 41.552 49.9999 41V39Z" fill="#0B0F21"/>
<path d="M41 50C40.448 50 40 50.448 40 51V54.9999C40 55.5519 40.448 55.9999 41 55.9999C41.5519 55.9999 41.9999 55.5519 41.9999 54.9999V51C41.9999 50.448 41.5519 50 41 50Z" fill="#0B0F21"/>
<path d="M41.9999 39C41.9999 38.448 41.5519 38 41 38C40.448 38 40 38.448 40 39V41C40 41.552 40.448 42 41 42C41.5519 42 41.9999 41.552 41.9999 41V39Z" fill="#0B0F21"/>
<path d="M45 56C45.552 56 46 55.5519 46 55V23C46 22.5409 45.687 22.141 45.243 22.03L29.243 18.0299C28.9461 17.9549 28.627 18.0229 28.385 18.2119C28.1419 18.4009 28 18.6919 28 18.9999V40.9998C28 41.5518 28.448 41.9998 29 41.9998C29.5519 41.9998 29.9999 41.5518 29.9999 40.9998V20.281L44 23.781V55C44.0001 55.5519 44.4481 56 45 56Z" fill="#0B0F21"/>
<path d="M21.9999 21C21.9999 20.448 21.5519 20 21 20C20.448 20 20 20.448 20 21V23C20 23.552 20.448 24 21 24C21.5519 24 21.9999 23.552 21.9999 23V21Z" fill="#0B0F21"/>
<path d="M21.9999 15C21.9999 14.448 21.5519 14 21 14C20.448 14 20 14.448 20 15V17C20 17.552 20.448 18 21 18C21.5519 18 21.9999 17.552 21.9999 17V15Z" fill="#0B0F21"/>
<path d="M14 45C14 44.448 13.552 44 13.0001 44C12.4481 44 12 44.448 12 45V47C12 47.552 12.448 48 13 48C13.5519 48 13.9999 47.552 13.9999 47V45H14Z" fill="#0B0F21"/>
<path d="M5.00008 35.9999C5.55203 35.9999 6.00004 35.5519 6.00004 35V29.9999H16V54.9999C16 55.5518 16.448 55.9998 17 55.9998C17.5519 55.9998 17.9999 55.5518 17.9999 54.9999V29C17.9999 28.448 17.5519 28 17 28H4.99996C4.44801 28 4 28.448 4 29V35C4 35.5519 4.44801 35.9999 5.00008 35.9999Z" fill="#0B0F21"/>
<path d="M16 21V23C16 23.552 16.448 24 17 24C17.5519 24 17.9999 23.552 17.9999 23V21C17.9999 20.448 17.5519 20 17 20C16.448 20 16 20.448 16 21Z" fill="#0B0F21"/>
<path d="M21.9999 8.99996C21.9999 8.44801 21.5519 8 21 8C20.448 8 20 8.44801 20 8.99996V11C20 11.552 20.448 12 21 12C21.5519 12 21.9999 11.552 21.9999 11V8.99996Z" fill="#0B0F21"/>
<path d="M13 50C12.448 50 12 50.448 12 51V54.9999C12 55.5519 12.448 55.9999 13 55.9999C13.5519 55.9999 13.9999 55.5519 13.9999 54.9999V51C14 50.448 13.552 50 13 50Z" fill="#0B0F21"/>
<path fill-rule="evenodd" clip-rule="evenodd" d="M57 58H59C59.552 58 59.9999 58.4482 59.9999 59.0001C59.9999 59.5521 59.5519 60.0001 58.9999 60.0001H0.999961C0.448008 60.0001 0 59.552 0 59C0 58.448 0.448008 58 0.999961 58H3.99996V47.8991C1.72102 47.4341 0 45.415 0 43C0 40.2431 2.24297 38.0001 4.99992 38C7.75699 38 9.99996 40.2431 9.99996 43C9.99996 45.415 8.27894 47.4341 6 47.8991V58H27.9998V53.8991C25.7209 53.4341 23.9999 51.415 23.9999 49C23.9999 46.243 26.243 44 28.9999 44C31.757 44 34 46.2431 34 49C34 51.415 32.2789 53.4341 30 53.8991V58H55.0001V51.858C53.2801 51.4109 52.0001 49.858 52.0001 48C52.0001 45.794 53.7941 44 56 44C58.206 44 60 45.7939 60 48C60 49.858 58.72 51.4111 57 51.858V58ZM5.00004 40C3.34605 40 2.00004 41.3461 2.00004 43C2.00004 44.654 3.34605 46 5.00004 46C6.65402 46 8.00004 44.654 8.00004 43C8.00004 41.3461 6.65402 40 5.00004 40ZM26 49C26 47.3461 27.3461 46 29 46C30.654 46 32 47.3461 32 49C32 50.654 30.654 52 29 52C27.3461 52 26 50.654 26 49ZM56 46C54.897 46 54 46.8971 54 48.0001C54 49.103 54.897 50.0001 56 50.0001C57.1031 50.0001 58.0001 49.103 58.0001 48.0001C58.0001 46.897 57.1031 46 56 46Z" fill="#0B0F21"/>
<path d="M8 51V54.9999C8 55.5519 8.44801 55.9999 8.99996 55.9999C9.55191 55.9999 9.99992 55.5519 9.99992 54.9999V51C9.99992 50.448 9.55191 50 8.99996 50C8.44801 50 8 50.448 8 51Z" fill="#0B0F21"/>
<path d="M13.9999 33C13.9999 32.448 13.5519 32 13 32C12.448 32 12 32.448 12 33V35C12 35.552 12.448 36 13 36C13.5519 36 13.9999 35.552 13.9999 35V33Z" fill="#0B0F21"/>
<path d="M13.9999 39C13.9999 38.448 13.5519 38 13 38C12.448 38 12 38.448 12 39V41C12 41.552 12.448 42 13 42C13.5519 42 13.9999 41.552 13.9999 41V39Z" fill="#0B0F21"/>
<path d="M8 33V35C8 35.552 8.44801 36 8.99996 36C9.55191 36 9.99992 35.552 9.99992 35V33C9.99992 32.448 9.55191 32 8.99996 32C8.44801 32 8 32.448 8 33Z" fill="#0B0F21"/>
<path d="M21.9999 39C21.9999 38.448 21.5519 38 21 38C20.448 38 20 38.448 20 39V41C20 41.552 20.448 42 21 42C21.5519 42 21.9999 41.552 21.9999 41V39Z" fill="#0B0F21"/>
<path d="M25.9999 27C25.9999 26.448 25.5519 26 25 26C24.448 26 24 26.448 24 27V29C24 29.552 24.448 30 25 30C25.5519 30 25.9999 29.552 25.9999 29V27Z" fill="#0B0F21"/>
<path d="M25.9999 21C25.9999 20.448 25.5519 20 25 20C24.448 20 24 20.448 24 21V23C24 23.552 24.448 24 25 24C25.5519 24 25.9999 23.552 25.9999 23V21Z" fill="#0B0F21"/>
<path d="M25.9999 33C25.9999 32.448 25.5519 32 25 32C24.448 32 24 32.448 24 33V35C24 35.552 24.448 36 25 36C25.5519 36 25.9999 35.552 25.9999 35V33Z" fill="#0B0F21"/>
<path d="M25 38C24.448 38 24 38.448 24 39V41C24 41.552 24.448 42 25 42C25.5519 42 25.9999 41.552 25.9999 41V39C26 38.448 25.552 38 25 38Z" fill="#0B0F21"/>
<path d="M25.9999 15C25.9999 14.448 25.5519 14 25 14C24.448 14 24 14.448 24 15V17C24 17.552 24.448 18 25 18C25.5519 18 25.9999 17.552 25.9999 17V15Z" fill="#0B0F21"/>
<path d="M21.9999 45C21.9999 44.448 21.5519 44 21 44C20.448 44 20 44.448 20 45V47C20 47.552 20.448 48 21 48C21.5519 48 21.9999 47.552 21.9999 47V45Z" fill="#0B0F21"/>
<path d="M12.9998 26C13.5518 26 13.9998 25.552 13.9998 25.0001V17.618L17.4468 15.895C17.7858 15.7249 17.9998 15.379 17.9998 15V6.61805L22.9998 4.11809L27.9998 6.61805V15C27.9998 15.552 28.4479 16 28.9998 16C29.5518 16 29.9999 15.552 29.9999 15V6C29.9999 5.62102 29.7859 5.27496 29.4469 5.10504L23.9999 2.38195V0.999961C23.9999 0.448008 23.5519 0 22.9999 0C22.448 0 22 0.448008 22 0.999961V2.38195L16.553 5.10492C16.2139 5.27496 16 5.6209 16 5.99988V14.3818L12.553 16.1048C12.214 16.2749 12 16.6208 12 16.9998V24.9998C11.9999 25.552 12.4479 26 12.9998 26Z" fill="#0B0F21"/>
<path d="M21.9999 33C21.9999 32.448 21.5519 32 21 32C20.448 32 20 32.448 20 33V35C20 35.552 20.448 36 21 36C21.5519 36 21.9999 35.552 21.9999 35V33Z" fill="#0B0F21"/>
<path d="M21 50C20.448 50 20 50.448 20 51V54.9999C20 55.5519 20.448 55.9999 21 55.9999C21.5519 55.9999 21.9999 55.5519 21.9999 54.9999V51C21.9999 50.448 21.5519 50 21 50Z" fill="#0B0F21"/>
<path d="M25.9999 8.99996C25.9999 8.44801 25.5519 8 25 8C24.448 8 24 8.44801 24 8.99996V11C24 11.552 24.448 12 25 12C25.5519 12 25.9999 11.552 25.9999 11V8.99996Z" fill="#0B0F21"/>
<path d="M21.9999 27C21.9999 26.448 21.5519 26 21 26C20.448 26 20 26.448 20 27V29C20 29.552 20.448 30 21 30C21.5519 30 21.9999 29.552 21.9999 29V27Z" fill="#0B0F21"/>
</svg>
