<svg width="13" height="13" viewBox="0 0 13 13" fill="none" xmlns="http://www.w3.org/2000/svg">
<path opacity="0.5" fill-rule="evenodd" clip-rule="evenodd" d="M10.6875 12.0626L6.625 8.00009L2.56247 12.0626C2.11397 12.5111 1.38596 12.5111 0.93746 12.0626C0.488956 11.6141 0.488957 10.8861 0.93746 10.4376L4.99999 6.37508L0.93746 2.31255C0.488957 1.86405 0.488956 1.13604 0.93746 0.68754C1.38596 0.239037 2.11397 0.239037 2.56247 0.68754L6.625 4.75007L10.6875 0.68754C11.136 0.239037 11.864 0.239037 12.3125 0.68754C12.761 1.13604 12.761 1.86405 12.3125 2.31255L8.25001 6.37508L12.3125 10.4376C12.761 10.8861 12.761 11.6141 12.3125 12.0626C11.864 12.5111 11.136 12.5111 10.6875 12.0626Z" fill="#0B0F21"/>
</svg>
