<svg width="13" height="11" viewBox="0 0 13 11" fill="none" xmlns="http://www.w3.org/2000/svg">
<path fill-rule="evenodd" clip-rule="evenodd" d="M12.1641 6.37219H4.16515L6.82114 9.02919C7.14714 9.35419 7.09415 9.93519 6.70315 10.3252C6.31315 10.7162 5.73214 10.7682 5.40714 10.4432L0.929146 5.96519C0.792146 5.82819 0.737148 5.64419 0.730148 5.45019C0.727148 5.42519 0.724145 5.40019 0.723145 5.37519C0.724145 5.35019 0.727148 5.32519 0.730148 5.30019C0.737148 5.10619 0.792146 4.92219 0.929146 4.78519L5.40714 0.307189C5.73214 -0.0178114 6.31315 0.0351886 6.70315 0.425189C7.09415 0.816189 7.14714 1.39619 6.82114 1.72119L4.17014 4.37219H12.1641C12.6241 4.37219 12.9971 4.82019 12.9971 5.37219C12.9971 5.92419 12.6241 6.37219 12.1641 6.37219Z" fill="#868787"/>
</svg>
