<svg width="60" height="60" viewBox="0 0 60 60" fill="none" xmlns="http://www.w3.org/2000/svg">
<path fill-rule="evenodd" clip-rule="evenodd" d="M58.4766 6.79688H59.1211C59.6063 6.79688 60 7.19055 60 7.67578V15.6445C60 16.1298 59.6063 16.5234 59.1211 16.5234H58.4766V59.1211C58.4766 59.6063 58.0829 60 57.5977 60H12.3047C11.1708 60 11.1708 58.2422 12.3047 58.2422H18.4955V39.6094H3.28125V58.2422H7.03125C8.16513 58.2422 8.16513 60 7.03125 60H2.40234C1.91711 60 1.52344 59.6063 1.52344 59.1211V16.436C0.644073 16.1765 0 15.363 0 14.4008V12.7734C0 11.6396 1.75781 11.6396 1.75781 12.7734V14.4008C1.75781 14.6017 1.92169 14.7656 2.12265 14.7656H14.4008C14.6017 14.7656 14.7656 14.6017 14.7656 14.4008V2.12265C14.7656 1.92169 14.6017 1.75781 14.4008 1.75781H2.12265C1.92169 1.75781 1.75781 1.92169 1.75781 2.12265V7.96875C1.75781 9.10263 0 9.10263 0 7.96875V2.12265C0 0.952148 0.952148 0 2.12265 0H14.4008C15.5713 0 16.5234 0.952148 16.5234 2.12265V2.57812H57.5977C58.0829 2.57812 58.4766 2.9718 58.4766 3.45703V6.79688ZM56.7188 4.33594H16.6406V6.79688H56.7188V4.33594ZM16.5234 14.4008V8.55469H58.2422V14.7656H16.49C16.5106 14.6466 16.5234 14.5253 16.5234 14.4008ZM47.2852 33.6328H56.7188V16.6406H3.28125V33.6328H12.7148V32.3438H12.4219C10.4187 32.3438 8.78906 30.7141 8.78906 28.7109V27.4219C8.78906 26.1465 9.45007 25.0232 10.4471 24.375H9.47617C8.34229 24.375 8.34229 22.6172 9.47617 22.6172H10.8984V21.8225C10.8984 19.9992 12.382 18.5156 14.2053 18.5156H22.3572C24.1805 18.5156 25.6641 19.9992 25.6641 21.8225V22.6172H27.0863C28.2202 22.6172 28.2202 24.375 27.0863 24.375H26.1154C27.1124 25.0232 27.7734 26.1465 27.7734 27.4219V28.7109C27.7734 30.7141 26.1438 32.3438 24.1406 32.3438H23.8477V33.6328H36.1523V32.3438H35.8594C33.8562 32.3438 32.2266 30.7141 32.2266 28.7109V27.4219C32.2266 26.1465 32.8876 25.0232 33.8846 24.375H32.9137C31.7798 24.375 31.7798 22.6172 32.9137 22.6172H34.3359V21.8225C34.3359 19.9992 35.8195 18.5156 37.6428 18.5156H45.7947C47.618 18.5156 49.1016 19.9992 49.1016 21.8225V22.6172H50.5238C51.6577 22.6172 51.6577 24.375 50.5238 24.375H49.5529C50.5499 25.0232 51.2109 26.1465 51.2109 27.4219V28.7109C51.2109 30.7141 49.5813 32.3438 47.5781 32.3438H47.2852V33.6328ZM47.3438 23.7891H36.0938V21.8225C36.0938 20.9683 36.7886 20.2734 37.6428 20.2734H45.7947C46.6489 20.2734 47.3438 20.9683 47.3438 21.8225V23.7891ZM35.8594 25.5469C34.8257 25.5469 33.9844 26.3882 33.9844 27.4219V28.7109C33.9844 29.7446 34.8257 30.5859 35.8594 30.5859H47.5781C48.6118 30.5859 49.4531 29.7446 49.4531 28.7109V27.4219C49.4531 26.3882 48.6118 25.5469 47.5781 25.5469H35.8594ZM37.9102 32.3438H45.5273V33.6328H37.9102V32.3438ZM12.6562 23.7891H23.9062V21.8225C23.9062 20.9683 23.2114 20.2734 22.3572 20.2734H14.2053C13.3511 20.2734 12.6562 20.9683 12.6562 21.8225V23.7891ZM10.5469 27.4219C10.5469 26.3882 11.3882 25.5469 12.4219 25.5469H24.1406C25.1743 25.5469 26.0156 26.3882 26.0156 27.4219V28.7109C26.0156 29.7446 25.1743 30.5859 24.1406 30.5859H12.4219C11.3882 30.5859 10.5469 29.7446 10.5469 28.7109V27.4219ZM22.0898 32.3438H14.4727V33.6328H22.0898V32.3438ZM37.2656 58.2422V51.0938H39.7266V58.2422H37.2656ZM41.4844 53.3391V58.2422H56.7188V39.6094H53.0859C51.9521 39.6094 51.9521 37.8516 53.0859 37.8516H56.7188V35.3906H3.28125V37.8516H47.9297C49.0636 37.8516 49.0636 39.6094 47.9297 39.6094H20.2533V58.2422H35.5078V53.4375H23.8477C22.7138 53.4375 22.7138 51.6797 23.8477 51.6797H35.5078V50.2148C35.5078 49.7296 35.9015 49.3359 36.3867 49.3359H40.6055C41.0907 49.3359 41.4844 49.7296 41.4844 50.2148V51.4275L52.7994 46.5939C53.8417 46.1485 54.5325 47.7654 53.4897 48.2108L41.4844 53.3391Z" fill="#0B0F21"/>
<path fill-rule="evenodd" clip-rule="evenodd" d="M6.82715 9.85922V12.1412C6.82715 13.2751 5.06934 13.2751 5.06934 12.1412V4.38208C5.06934 3.89685 5.46255 3.50317 5.94824 3.50317C5.96038 3.50317 5.97232 3.50398 5.98433 3.50479C5.99043 3.5052 5.99655 3.50561 6.00272 3.50592C6.00889 3.50561 6.015 3.5052 6.02111 3.50479C6.03311 3.50398 6.04505 3.50317 6.05719 3.50317H8.24347C10.0141 3.50317 11.4542 4.92865 11.4542 6.68097C11.4542 8.43329 10.0141 9.85922 8.24347 9.85922H6.82715ZM8.24347 8.10141C9.04456 8.10141 9.69641 7.4642 9.69641 6.68097C9.69641 5.89819 9.04501 5.26099 8.24347 5.26099H6.82715V8.10141H8.24347Z" fill="#0B0F21"/>
<path d="M54.5508 10.8984H20.0977C18.9638 10.8984 18.9638 12.6562 20.0977 12.6562H54.5508C55.6847 12.6562 55.6847 10.8984 54.5508 10.8984Z" fill="#0B0F21"/>
<path d="M36.8847 28.9453C38.0158 28.9453 38.0176 27.1875 36.8847 27.1875C35.7535 27.1875 35.7517 28.9453 36.8847 28.9453Z" fill="#0B0F21"/>
<path d="M46.5527 28.9453C47.6838 28.9453 47.6856 27.1875 46.5527 27.1875C45.4215 27.1875 45.4197 28.9453 46.5527 28.9453Z" fill="#0B0F21"/>
<path d="M13.4472 28.9453C14.5783 28.9453 14.5801 27.1875 13.4472 27.1875C12.316 27.1875 12.3142 28.9453 13.4472 28.9453Z" fill="#0B0F21"/>
<path d="M23.1152 28.9453C24.2463 28.9453 24.2481 27.1875 23.1152 27.1875C21.984 27.1875 21.9822 28.9453 23.1152 28.9453Z" fill="#0B0F21"/>
</svg>
