<svg width="60" height="61" viewBox="0 0 60 61" fill="none" xmlns="http://www.w3.org/2000/svg">
<mask id="mask0" mask-type="alpha" maskUnits="userSpaceOnUse" x="0" y="51" width="2" height="10">
<path fill-rule="evenodd" clip-rule="evenodd" d="M0 51.9478H1.81687V60.1961H0V51.9478Z" fill="white"/>
</mask>
<g mask="url(#mask0)">
<path fill-rule="evenodd" clip-rule="evenodd" d="M0.908018 51.9478C0.406768 51.9478 -0.000732422 52.354 -0.000732422 52.8565V59.2878C-0.000732422 59.789 0.406768 60.1965 0.908018 60.1965C1.40927 60.1965 1.81677 59.789 1.81677 59.2878V52.8565C1.81677 52.354 1.40927 51.9478 0.908018 51.9478Z" fill="#1A171B"/>
</g>
<path fill-rule="evenodd" clip-rule="evenodd" d="M9.21197 44.6809C8.71072 44.6809 8.30322 45.0872 8.30322 45.5897V59.2884C8.30322 59.7897 8.71072 60.1959 9.21197 60.1959C9.71322 60.1959 10.1207 59.7897 10.1207 59.2884V45.5897C10.1207 45.0872 9.71322 44.6809 9.21197 44.6809Z" fill="#1A171B"/>
<mask id="mask1" mask-type="alpha" maskUnits="userSpaceOnUse" x="16" y="37" width="3" height="24">
<path fill-rule="evenodd" clip-rule="evenodd" d="M16.6082 37.4143H18.4257V60.1963H16.6082V37.4143Z" fill="white"/>
</mask>
<g mask="url(#mask1)">
<path fill-rule="evenodd" clip-rule="evenodd" d="M17.5169 37.4143C17.0157 37.4143 16.6082 37.8206 16.6082 38.3231V59.2881C16.6082 59.7893 17.0157 60.1968 17.5169 60.1968C18.0182 60.1968 18.4257 59.7893 18.4257 59.2881V38.3231C18.4257 37.8206 18.0182 37.4143 17.5169 37.4143Z" fill="#1A171B"/>
</g>
<path fill-rule="evenodd" clip-rule="evenodd" d="M25.8216 31.9639C25.3203 31.9639 24.9128 32.3701 24.9128 32.8726V59.2876C24.9128 59.7901 25.3203 60.1964 25.8216 60.1964C26.3228 60.1964 26.7303 59.7901 26.7303 59.2876V32.8726C26.7303 32.3701 26.3228 31.9639 25.8216 31.9639Z" fill="#1A171B"/>
<path fill-rule="evenodd" clip-rule="evenodd" d="M34.1253 31.9639C33.6241 31.9639 33.2166 32.3701 33.2166 32.8726V59.2876C33.2166 59.7901 33.6241 60.1964 34.1253 60.1964C34.6266 60.1964 35.0341 59.7901 35.0341 59.2876V32.8726C35.0341 32.3701 34.6266 31.9639 34.1253 31.9639Z" fill="#1A171B"/>
<path fill-rule="evenodd" clip-rule="evenodd" d="M41.5215 32.8719V40.2119C41.5215 40.7131 41.9277 41.1206 42.4302 41.1206C42.9302 41.1206 43.3377 40.7131 43.3377 40.2119V32.8719C43.3377 32.3706 42.9302 31.9631 42.4302 31.9631C41.9277 31.9631 41.5215 32.3706 41.5215 32.8719Z" fill="#1A171B"/>
<path fill-rule="evenodd" clip-rule="evenodd" d="M49.8254 24.6959V37.4871C49.8254 37.9896 50.2317 38.3959 50.7342 38.3959C51.2354 38.3959 51.6417 37.9896 51.6417 37.4871V24.6959C51.6417 24.1959 51.2354 23.7871 50.7342 23.7871C50.2317 23.7871 49.8254 24.1959 49.8254 24.6959Z" fill="#1A171B"/>
<path fill-rule="evenodd" clip-rule="evenodd" d="M58.1299 24.6959V39.3046C58.1299 39.8059 58.5374 40.2121 59.0386 40.2121C59.5399 40.2121 59.9474 39.8059 59.9474 39.3046V24.6959C59.9474 24.1959 59.5399 23.7871 59.0386 23.7871C58.5374 23.7871 58.1299 24.1959 58.1299 24.6959Z" fill="#1A171B"/>
<mask id="mask2" mask-type="alpha" maskUnits="userSpaceOnUse" x="0" y="0" width="60" height="47">
<path fill-rule="evenodd" clip-rule="evenodd" d="M0.000244141 0.25H59.9465V46.4484H0.000244141V0.25Z" fill="white"/>
</mask>
<g mask="url(#mask2)">
<path fill-rule="evenodd" clip-rule="evenodd" d="M38.374 25.002H20.539C20.299 25.002 20.0665 25.097 19.8977 25.267L1.81649 43.3483V34.3545L16.599 19.5745C17.199 18.9745 17.9977 18.6445 18.8465 18.6445H36.6815C36.9215 18.6445 37.1527 18.547 37.324 18.377L48.729 6.97076C48.899 6.80076 48.9952 6.57076 48.9952 6.32951C48.9952 6.08826 48.899 5.85701 48.729 5.68826L45.109 2.06576H58.1302V15.0883L54.5102 11.467C54.1552 11.1133 53.5802 11.1133 53.2252 11.467L40.6215 24.0695C40.0215 24.6695 39.2227 25.002 38.374 25.002ZM53.8677 13.3945L58.3965 17.9233C58.6552 18.1833 59.0465 18.2595 59.3865 18.1195C59.7252 17.9783 59.9465 17.6483 59.9465 17.2795V1.15826C59.9465 0.655762 59.5402 0.249512 59.0377 0.249512H42.9165C42.5477 0.249512 42.2177 0.470762 42.0765 0.809512C41.9365 1.15076 42.014 1.54076 42.274 1.79951L46.8027 6.32951L36.3052 16.8283H18.8465C17.5127 16.8283 16.2577 17.3458 15.314 18.2908L0.266494 33.337C0.0952442 33.5083 0.000244141 33.7395 0.000244141 33.9795V45.5408C0.000244141 45.9083 0.221494 46.2383 0.561494 46.3795C0.673994 46.427 0.791494 46.4483 0.907744 46.4483C1.14524 46.4483 1.37649 46.357 1.55149 46.1833L20.9152 26.8183H38.374C39.7077 26.8183 40.9627 26.2983 41.9065 25.3545L53.8677 13.3945Z" fill="#1A171B"/>
</g>
<path fill-rule="evenodd" clip-rule="evenodd" d="M50.8447 51.5524C49.4735 51.5524 48.8072 50.9736 48.8072 49.7836C48.8072 48.8074 49.721 48.0136 50.8447 48.0136C51.6985 48.0136 52.4685 48.4811 52.7622 49.1799C52.956 49.6411 53.4885 49.8574 53.951 49.6636C54.4135 49.4699 54.6297 48.9374 54.436 48.4749C53.9685 47.3624 52.9635 46.5774 51.7585 46.3086V45.6324C51.7585 45.1299 51.3522 44.7236 50.8497 44.7236C50.3485 44.7236 49.9422 45.1299 49.9422 45.6324V46.3074C48.2522 46.6861 46.991 48.0961 46.991 49.7836C46.991 51.5161 48.0035 53.3686 50.8447 53.3686C52.2047 53.3686 52.8935 53.9636 52.8935 55.1374C52.8935 56.1124 51.9797 56.9061 50.856 56.9061C50.0035 56.9061 49.2322 56.4386 48.9397 55.7424C48.7447 55.2774 48.211 55.0611 47.7497 55.2561C47.2872 55.4499 47.071 55.9836 47.2647 56.4449C47.7322 57.5574 48.7372 58.3436 49.9422 58.6124V59.2874C49.9422 59.7899 50.3485 60.1961 50.8497 60.1961C51.3522 60.1961 51.7585 59.7899 51.7585 59.2874V58.6136C53.4485 58.2336 54.711 56.8249 54.711 55.1374C54.711 52.9599 53.1935 51.5524 50.8447 51.5524Z" fill="#1A171B"/>
<mask id="mask3" mask-type="alpha" maskUnits="userSpaceOnUse" x="39" y="41" width="21" height="20">
<path fill-rule="evenodd" clip-rule="evenodd" d="M39.4963 41.1067H60V60.1929H39.4963V41.1067Z" fill="white"/>
</mask>
<g mask="url(#mask3)">
<path fill-rule="evenodd" clip-rule="evenodd" d="M59.8076 45.4842C57.6388 42.7017 54.3726 41.1067 50.8501 41.1067C44.5901 41.1067 39.4963 46.1992 39.4963 52.4604C39.4963 55.1842 40.4763 57.8179 42.2551 59.8779C42.4338 60.0867 42.6876 60.1929 42.9426 60.1929C43.1526 60.1929 43.3638 60.1192 43.5351 59.9717C43.9151 59.6429 43.9563 59.0704 43.6288 58.6904C42.1363 56.9617 41.3138 54.7479 41.3138 52.4604C41.3138 47.2017 45.5913 42.9229 50.8501 42.9229C53.8101 42.9229 56.5526 44.2642 58.3751 46.6017C58.6838 46.9967 59.2551 47.0679 59.6501 46.7592C60.0451 46.4492 60.1176 45.8792 59.8076 45.4842Z" fill="#1A171B"/>
</g>
</svg>
