<svg width="90" height="100" viewBox="0 0 90 100" fill="none" xmlns="http://www.w3.org/2000/svg">
<path d="M89.0357 54.6429C89.0357 79.1604 69.1604 99.0357 44.6429 99.0357C20.1254 99.0357 0.25 79.1604 0.25 54.6429C0.25 30.1254 20.1254 10.25 44.6429 10.25C69.1604 10.25 89.0357 30.1254 89.0357 54.6429Z" fill="white" fill-opacity="0.2" stroke="white" stroke-width="0.5"/>
<path fill-rule="evenodd" clip-rule="evenodd" d="M71.6456 50.7747C73.7525 53.0074 74.9441 54.5872 74.9441 54.5872C74.9441 54.5872 61.3495 72.9243 44.347 72.9243C27.3438 72.9243 13.75 54.5872 13.75 54.5872C13.75 54.5872 27.574 36.25 44.347 36.25C53.5411 36.25 61.8503 41.7607 67.4811 46.741L71.6456 50.7747Z" stroke="white" stroke-linecap="square"/>
<path d="M51.4598 54.587C51.4598 58.5155 48.2748 61.6997 44.3471 61.6997C40.4179 61.6997 37.2336 58.5155 37.2336 54.587C37.2336 50.6594 40.4179 47.4743 44.3471 47.4743" stroke="white" stroke-linecap="square"/>
<path fill-rule="evenodd" clip-rule="evenodd" d="M57.3561 54.587C57.3561 61.7712 51.5312 67.5961 44.347 67.5961C37.162 67.5961 31.3372 61.7712 31.3372 54.587C31.3372 47.4028 37.162 41.5788 44.347 41.5788C51.5312 41.5788 57.3561 47.4028 57.3561 54.587Z" stroke="white" stroke-linecap="square"/>
<path fill-rule="evenodd" clip-rule="evenodd" d="M35.178 16.1734V13.0071C35.178 12.6917 34.9226 12.4354 34.6063 12.4354H33.1817C32.9091 12.4354 32.6786 12.2409 32.622 11.9743C32.5414 11.6014 32.4454 11.2354 32.3323 10.8763C32.25 10.6174 32.3529 10.3346 32.5894 10.1991L33.8237 9.49286C34.098 9.33514 34.1931 8.98629 34.0354 8.712L32.4626 5.96486C32.3049 5.69057 31.956 5.59543 31.6817 5.75314L30.4449 6.46114C30.2083 6.59657 29.9134 6.54257 29.7309 6.34029C29.4634 6.04457 29.1806 5.76086 28.8857 5.49171C28.6843 5.30829 28.632 5.01257 28.7683 4.77686L29.484 3.54257C29.6426 3.26914 29.5491 2.91943 29.2757 2.76171L26.5363 1.17343C26.2637 1.01486 25.9131 1.10829 25.7546 1.38086L25.0423 2.61086C24.906 2.84657 24.624 2.94686 24.3643 2.86457C23.9863 2.74371 23.5997 2.64086 23.2063 2.556C22.9397 2.49943 22.746 2.26971 22.746 1.99629V0.571714C22.746 0.255429 22.4897 0 22.1734 0H19.0071C18.6917 0 18.4354 0.255429 18.4354 0.571714V1.99629C18.4354 2.26886 18.2409 2.49857 17.9743 2.556C17.6023 2.63571 17.2363 2.73257 16.8771 2.84486C16.6174 2.92714 16.3354 2.82514 16.2 2.58771L15.4929 1.35343C15.336 1.08 14.9863 0.984 14.7129 1.14171L11.9649 2.71543C11.6906 2.87229 11.5963 3.222 11.7531 3.49629L12.462 4.73229C12.5966 4.96971 12.5426 5.26371 12.3403 5.44629C12.0446 5.71457 11.7609 5.99657 11.4917 6.29229C11.3083 6.49286 11.0134 6.546 10.7777 6.40886L9.54257 5.69314C9.27 5.53543 8.92029 5.628 8.76171 5.90143L7.17343 8.64086C7.01571 8.91429 7.10829 9.264 7.38171 9.42257L8.61086 10.1349C8.84657 10.2711 8.94771 10.5531 8.86457 10.8129C8.74371 11.1917 8.64171 11.5783 8.55686 11.9717C8.49943 12.2374 8.26971 12.432 7.99714 12.432H6.57171C6.25543 12.432 6 12.6883 6 13.0046V16.17C6 16.4863 6.25543 16.7426 6.57171 16.7426H7.99629C8.26886 16.7426 8.49857 16.9371 8.556 17.2029C8.63657 17.5757 8.73257 17.9417 8.84571 18.3C8.928 18.5606 8.82514 18.8417 8.58857 18.9771L7.35429 19.6851C7.08 19.8411 6.98486 20.1909 7.14257 20.4651L8.71543 23.2131C8.87314 23.4866 9.222 23.5817 9.49629 23.4249L10.7331 22.716C10.9697 22.5814 11.2646 22.6346 11.4471 22.8369C11.7146 23.1334 11.9974 23.4163 12.2923 23.6863C12.4937 23.8697 12.546 24.1646 12.4097 24.4003L11.694 25.6346C11.5354 25.9071 11.6289 26.2577 11.9023 26.4163L14.6417 28.0046C14.9143 28.1623 15.2649 28.0697 15.4226 27.7963L16.1357 26.5663C16.272 26.3314 16.554 26.2294 16.8137 26.3126C17.1917 26.4343 17.5783 26.5363 17.9717 26.6203C18.2383 26.6786 18.432 26.9074 18.432 27.1809V28.6063C18.432 28.9217 18.6883 29.178 19.0037 29.178H22.1709C22.4863 29.178 22.7426 28.9217 22.7426 28.6063V27.1817C22.7426 26.9083 22.9371 26.6786 23.2037 26.6211C23.5757 26.5414 23.9417 26.4446 24.3009 26.3323C24.5606 26.25 24.8426 26.3529 24.978 26.5886L25.6851 27.8237C25.842 28.098 26.1917 28.1923 26.4651 28.0354L29.2131 26.4617C29.4866 26.3049 29.5817 25.9551 29.4249 25.6817L28.716 24.444C28.5814 24.2083 28.6354 23.9134 28.8377 23.73C29.1334 23.4626 29.4163 23.1806 29.6863 22.8857C29.8697 22.6843 30.1646 22.6311 30.4003 22.7683L31.6346 23.4831C31.908 23.6426 32.2577 23.5483 32.4163 23.2757L34.0046 20.5363C34.1623 20.2629 34.0697 19.9131 33.7963 19.7546L32.5671 19.0423C32.3314 18.906 32.2303 18.6231 32.3134 18.3643C32.4343 17.9854 32.5363 17.5997 32.6211 17.2063C32.6786 16.9397 32.9083 16.7451 33.1809 16.7451H34.6063C34.9226 16.7451 35.178 16.4889 35.178 16.1734Z" fill="#FAD756"/>
<path d="M25.8051 11L24.0043 12.8017L22.2034 14.6017L20.4026 16.4034L18.6017 18.2034L15 14.6017" stroke="#0B0F21" stroke-width="2" stroke-linecap="square"/>
</svg>
