<svg width="84" height="17" viewBox="0 0 84 17" fill="none" xmlns="http://www.w3.org/2000/svg">
<path fill-rule="evenodd" clip-rule="evenodd" d="M10.5125 5.75787L7.1674 3.82544C7.1674 3.82544 1.07346 0.30439 0.715058 0.097432C0.356804 -0.109526 0 0.0158677 0 0.448361C0 1.16894 0 7.96621 0 7.96621C0 7.96621 0 15.3121 0 15.6366C0 15.9608 0.255129 16.1006 0.56639 15.9209C0.877505 15.7408 7.1674 12.1068 7.1674 12.1068L10.5124 10.1745C10.5124 10.1745 13.3505 8.53498 13.7278 8.31713C14.1051 8.099 14.0688 7.80003 13.7504 7.62848C13.4322 7.45679 10.5125 5.75787 10.5125 5.75787Z" fill="url(#paint0_linear)"/>
<path fill-rule="evenodd" clip-rule="evenodd" d="M52.9015 11.4665C52.4742 11.4253 52.3848 11.3434 52.3848 10.8079V3.04472C52.386 3.03049 52.3871 3.01612 52.3882 3.00184C52.3894 2.98647 52.3905 2.9712 52.3919 2.9563C52.4441 2.47649 52.5731 2.39421 52.975 2.14697H51.1235L50.1526 2.64085H51.142V2.6472L51.1413 2.64204V11.1098C51.1413 11.358 51.0993 11.4154 50.8696 11.73L50.8693 11.7304C50.8457 11.7628 50.82 11.7979 50.7922 11.8363H53.0831L53.5618 11.5355C53.4481 11.5208 53.3341 11.5102 53.2201 11.4995L53.22 11.4995L53.22 11.4995L53.2199 11.4995C53.1138 11.4896 53.0076 11.4797 52.9015 11.4665ZM27.7422 12.3141L29.593 11.8614V10.1875C29.593 10.0503 29.6051 9.65235 29.6186 9.52864C29.6446 9.41979 29.6571 9.39203 29.7482 9.30935L30.0844 8.96675H27.3406L26.3059 9.55699L28.2597 9.44735V11.6552C27.8711 11.8202 27.445 11.9984 26.6159 11.9984C23.7952 11.9984 22.0348 9.57047 22.0348 6.99281C22.0348 4.59259 23.575 2.94599 25.6201 2.94599C27.1362 2.94599 27.9386 3.77116 28.3803 4.22546L28.3893 4.23472L28.0659 4.78352L28.5186 4.67428L29.593 3.59075L29.5406 3.55271C29.2527 3.34289 28.798 3.01145 27.8846 2.74038C27.2764 2.56194 26.6041 2.4525 25.905 2.4525C22.6045 2.4525 20.6765 4.92072 20.6765 7.58126C20.6765 9.76219 22.0348 12.5466 25.6072 12.5466C26.3186 12.5466 26.9913 12.4378 27.7422 12.3141ZM70.8266 12.1525H69.8931V2.87758H70.8266V12.1525ZM64.6044 6.89506C64.8855 6.52569 65.3409 6.34071 65.9707 6.34071C66.5183 6.34071 66.9433 6.55821 67.2453 6.9934C67.5468 7.4286 67.6978 8.05373 67.6978 8.86801C67.6978 9.67119 67.5468 10.3013 67.2453 10.7581C66.9433 11.2149 66.526 11.4433 65.9934 11.4433C65.3562 11.4433 64.8932 11.2458 64.6044 10.8505C64.3155 10.4549 64.1709 9.79828 64.1709 8.88011V8.65983C64.1786 7.85289 64.3232 7.26483 64.6044 6.89506ZM65.0064 12.0365C65.3381 12.1933 65.7045 12.2717 66.1058 12.2717C66.9085 12.2717 67.5356 11.9748 67.9877 11.381C68.4392 10.7864 68.6651 9.95312 68.6651 8.88011C68.6651 7.81125 68.4427 6.98071 67.9984 6.38869C67.5543 5.79647 66.9233 5.50026 66.1058 5.50026C65.6937 5.50026 65.3279 5.57996 65.0094 5.73877C64.6908 5.89778 64.4113 6.15592 64.1709 6.5136H64.126L63.9969 5.61961H63.2378V15.0853H64.1709V12.397C64.1709 12.0555 64.1485 11.6937 64.1036 11.3124H64.1709C64.396 11.638 64.6747 11.8795 65.0064 12.0365ZM74.0852 11.4552C74.6662 11.4552 75.1225 11.2865 75.4548 10.9488C75.7862 10.6112 75.9526 10.1381 75.9526 9.52963V8.93978L75.0185 8.98122C74.2762 9.00938 73.7414 9.13131 73.4129 9.34821C73.0849 9.56472 72.9209 9.90158 72.9209 10.3586C72.9209 10.7161 73.0228 10.9885 73.2273 11.1748C73.4317 11.362 73.7174 11.4552 74.0852 11.4552ZM76.1943 12.1525L76.0085 11.2224H75.9634C75.656 11.6322 75.3494 11.9094 75.0438 12.0542C74.7384 12.1995 74.3568 12.2717 73.8994 12.2717C73.2885 12.2717 72.8094 12.1049 72.4625 11.771C72.1155 11.4372 71.9421 10.9627 71.9421 10.3467C71.9421 9.02742 72.9379 8.33606 74.9285 8.27222L75.975 8.23633V7.83108C75.975 7.31836 75.8708 6.93967 75.6626 6.6956C75.4548 6.45094 75.1214 6.32901 74.6644 6.32901C74.1505 6.32901 73.5692 6.49595 72.9209 6.82963L72.6339 6.07265C72.9379 5.89778 73.2703 5.76078 73.6325 5.66145C73.9941 5.56211 74.3568 5.51235 74.7207 5.51235C75.4555 5.51235 76.0001 5.68504 76.3546 6.03082C76.7087 6.37659 76.8859 6.93095 76.8859 7.69408V12.1525H76.1943ZM78.4286 5.61961H77.428L79.9136 12.1888L79.5707 13.1185C79.2967 13.8818 78.8395 14.263 78.1984 14.263C77.9432 14.263 77.7123 14.2391 77.5064 14.1915V14.9841C77.784 15.0515 78.0652 15.0853 78.3503 15.0853C78.8598 15.0853 79.2903 14.9316 79.6407 14.6239C79.9916 14.3154 80.2981 13.7937 80.5605 13.0586L83.2098 5.61961H82.2083C81.3462 8.14711 80.837 9.65572 80.6814 10.1466C80.5261 10.6377 80.4238 10.9841 80.375 11.1873H80.3301C80.2586 10.8094 80.0747 10.1958 79.7786 9.34524L78.4286 5.61961ZM48.2695 9.69736C48.5657 9.38271 48.5911 8.94593 48.5911 8.69968C48.5911 7.71608 48.037 6.18566 46.9671 6.18566C46.6315 6.18566 46.271 6.36311 46.0645 6.63692C45.8456 6.92381 45.7807 7.29219 45.7807 7.64788C45.7807 8.56328 46.2836 10.0802 47.3929 10.0802C47.7151 10.0802 48.0625 9.91625 48.2695 9.69736ZM47.8954 12.2941C47.7925 12.2798 47.7276 12.2798 47.5993 12.2798C47.4833 12.2798 46.7862 12.3075 46.2452 12.4995C45.9616 12.6079 45.1363 12.9358 45.1363 13.9066C45.1363 14.8761 46.0264 15.5742 47.406 15.5742C48.6429 15.5742 49.3012 14.9443 49.3012 14.0977C49.3012 13.3996 48.8757 13.032 47.8954 12.2941ZM48.8111 6.22651C49.1074 6.48643 49.7261 7.03266 49.7261 8.07157C49.7261 9.08214 49.1847 9.56135 48.6429 10.0116L48.6234 10.0323C48.4607 10.2041 48.2821 10.3926 48.2821 10.682C48.2821 10.979 48.4716 11.1429 48.6135 11.2656L48.6177 11.2692L49.082 11.6511C49.6492 12.1567 50.1644 12.6216 50.1644 13.5649C50.1644 14.8491 48.9911 16.147 46.7739 16.147C44.9041 16.147 44.002 15.2044 44.002 14.1927C44.002 13.7008 44.2331 13.0044 44.9946 12.5256C45.7757 12.0179 46.8293 11.942 47.4178 11.8996L47.4573 11.8967L47.4341 11.8654C47.2591 11.6288 47.0702 11.3734 47.0702 10.9684C47.0702 10.7598 47.1226 10.6282 47.1799 10.484L47.1993 10.4349C47.0569 10.4488 46.9153 10.4625 46.7862 10.4625C45.4201 10.4625 44.6463 9.38271 44.6463 8.31743C44.6463 7.68872 44.9174 6.99162 45.4711 6.48643C46.2063 5.84425 47.0831 5.73461 47.7798 5.73461H50.4353L49.6099 6.22651H48.8111ZM42.6897 9.45548C42.6897 9.98802 42.6125 10.5335 42.303 10.9704C42.0077 11.4064 41.4926 11.6652 40.9907 11.6652C39.4328 11.6652 38.802 9.44199 38.802 8.09239C38.802 7.50493 38.8925 6.90458 39.3946 6.42775C39.7035 6.14085 40.1283 5.96301 40.5528 5.96301C42.1493 5.96301 42.6897 8.25477 42.6897 9.45548ZM37.5536 8.85512C37.5536 10.3834 38.6478 12.0752 40.6942 12.0752C42.793 12.0752 43.9639 10.3693 43.9639 8.76015C43.9639 7.10879 42.7795 5.5405 40.888 5.5405C38.9307 5.5405 37.5536 7.06775 37.5536 8.85512ZM35.3265 10.9704C35.6354 10.5335 35.7129 9.98802 35.7129 9.45548C35.7129 8.25477 35.172 5.96301 33.5755 5.96301C33.1513 5.96301 32.726 6.14085 32.4174 6.42775C31.9153 6.90458 31.8253 7.50493 31.8253 8.09239C31.8253 9.44199 32.4557 11.6652 34.0139 11.6652C34.516 11.6652 35.0306 11.4064 35.3265 10.9704ZM33.7173 12.0752C31.6706 12.0752 30.5764 10.3834 30.5764 8.85512C30.5764 7.06775 31.954 5.5405 33.9106 5.5405C35.8026 5.5405 36.9868 7.10879 36.9868 8.76015C36.9868 10.3693 35.8157 12.0752 33.7173 12.0752ZM57.3323 7.1655C57.3323 7.35603 57.2036 7.43791 56.9598 7.53288L54.6208 8.60987C54.6164 8.52867 54.6106 8.44753 54.6049 8.36693L54.6048 8.3663C54.5932 8.20309 54.5817 8.04208 54.5817 7.88719C54.5817 6.41645 55.545 5.99394 56.0596 5.99394C56.7542 5.99394 57.3323 6.62106 57.3323 7.1655ZM58.0291 11.676C58.0753 11.6477 58.1214 11.6194 58.1676 11.5926L58.8489 10.9115C58.4121 11.1427 57.9363 11.3876 57.281 11.3876C56.0596 11.3876 54.9544 10.3802 54.6336 8.65051L55.6234 8.56883L58.6429 7.27415C58.5535 6.96069 58.3862 6.37501 57.7444 5.92653C57.3587 5.6672 56.8826 5.54487 56.4199 5.54487C55.0962 5.54487 53.4767 6.57982 53.4767 8.69096C53.4767 9.71223 53.8752 10.8838 54.787 11.5652C55.443 12.0686 56.0862 12.0968 56.4964 12.0968C56.8826 12.0968 57.3194 12.0421 57.7444 11.8378C57.8391 11.7924 57.9341 11.7342 58.029 11.676L58.0291 11.676ZM59.408 5.63785V6.53679H59.3051V5.63785H59.0245V5.54487H59.6885V5.63785H59.408ZM60.5641 5.62972V6.53679H60.6567V5.54487H60.4942L60.2594 6.34666H60.2562L60.0177 5.54487H59.8574V6.53679H59.9509V5.62972H59.9541L60.2177 6.53679H60.2981L60.5595 5.62972H60.5641Z" fill="#0B0F21"/>
<defs>
<linearGradient id="paint0_linear" x1="9.37885" y1="5.75787" x2="9.37885" y2="10.1745" gradientUnits="userSpaceOnUse">
<stop stop-color="#F7C374"/>
<stop offset="1" stop-color="#E88172"/>
</linearGradient>
</defs>
</svg>
