<svg width="72" height="65" viewBox="0 0 72 65" fill="none" xmlns="http://www.w3.org/2000/svg">
<path fill-rule="evenodd" clip-rule="evenodd" d="M65.7328 8.89233C65.0081 8.89233 64.3514 8.59874 63.8765 8.12345C63.4015 7.64851 63.1076 6.99222 63.1076 6.26719C63.1076 5.54215 63.4015 4.88586 63.8765 4.41092C64.3514 3.93563 65.0081 3.64169 65.7328 3.64169C66.4571 3.64169 67.1141 3.93563 67.589 4.41092C68.064 4.88586 68.3579 5.54215 68.3579 6.26719C68.3579 6.99222 68.064 7.64851 67.589 8.12345C67.1141 8.59874 66.4571 8.89233 65.7328 8.89233ZM65.7328 0C64.0017 0 62.4359 0.701536 61.3011 1.83557C60.1671 2.9696 59.4656 4.53649 59.4656 6.26718V9.40059V12.3078C59.4656 12.433 59.5669 12.534 59.6918 12.534H62.5986H65.7328C67.4638 12.534 69.03 11.8328 70.164 10.6984C71.2984 9.5644 71.9999 7.99752 71.9999 6.26718C71.9999 4.53649 71.2984 2.9696 70.164 1.83557C69.03 0.701536 67.4638 0 65.7328 0Z" fill="#FAD756"/>
<path fill-rule="evenodd" clip-rule="evenodd" d="M0.947776 45.4981C0.315691 44.9309 0 44.1189 0 43.0617C0 42.8291 0.00631383 42.6555 0.0192923 42.5383C0.0319199 42.3454 0.10944 42.2486 0.25115 42.2486H2.30174C2.4438 42.2486 2.50799 42.3388 2.49537 42.5194C2.45643 43.0617 2.55359 43.4738 2.78545 43.7573C3.01766 44.0417 3.38526 44.1827 3.88792 44.1827C4.81675 44.1827 5.28082 43.7646 5.28082 42.9256C5.28082 42.5776 5.2033 42.2812 5.04861 42.0357C4.89392 41.7912 4.63575 41.5653 4.27516 41.3587L2.16634 40.1016C1.43149 39.6631 0.902527 39.1829 0.580171 38.6603C0.257815 38.1383 0.0964613 37.4897 0.0964613 36.7163C0.0964613 35.6331 0.405839 34.805 1.0253 34.2304C1.64405 33.6565 2.55956 33.3693 3.77181 33.3693C5.023 33.3693 5.97709 33.6474 6.63478 34.2016C7.29247 34.7558 7.62149 35.5556 7.62149 36.5998C7.62149 36.8071 7.61483 36.9615 7.6022 37.0646C7.58922 37.2705 7.5117 37.374 7.36999 37.374H5.30011C5.15805 37.374 5.09351 37.2705 5.10683 37.0646C5.14542 36.6132 5.05176 36.2456 4.82657 35.9618C4.60068 35.6784 4.2685 35.5367 3.83004 35.5367C3.03029 35.5367 2.6241 35.9106 2.61112 36.6581C2.61112 36.9938 2.6953 37.2772 2.86262 37.5097C3.03029 37.7419 3.30108 37.9675 3.67535 38.1864L5.74523 39.4049C6.5057 39.8564 7.03781 40.3366 7.34123 40.8462C7.64359 41.3552 7.79547 42.0238 7.79547 42.8484C7.79547 43.9961 7.47312 44.8664 6.82876 45.4599C6.18369 46.053 5.17769 46.3498 3.81075 46.3498C2.53395 46.3498 1.57951 46.066 0.947776 45.4981Z" fill="#0B0F21"/>
<path fill-rule="evenodd" clip-rule="evenodd" d="M9.20778 46.1274C9.16919 46.0821 9.1499 46.0274 9.1499 45.9629V33.7561C9.1499 33.6923 9.16919 33.6379 9.20778 33.5923C9.24636 33.5471 9.29793 33.525 9.36247 33.525H15.7268C15.8685 33.525 15.9394 33.6021 15.9394 33.7561V35.5363C15.9394 35.691 15.8685 35.7685 15.7268 35.7685H11.6642V38.7279H15.3592C15.5009 38.7279 15.5721 38.8054 15.5721 38.9594V40.6242C15.5721 40.7785 15.5009 40.856 15.3592 40.856H11.6642V43.9508H15.7268C15.8685 43.9508 15.9394 44.0284 15.9394 44.1831V45.9629C15.9394 46.1175 15.8685 46.194 15.7268 46.194H9.36247C9.29793 46.194 9.24636 46.1726 9.20778 46.1274Z" fill="#0B0F21"/>
<path fill-rule="evenodd" clip-rule="evenodd" d="M21.0848 39.1921C21.6776 39.1921 22.1129 39.0473 22.3904 38.7568C22.6679 38.4671 22.8064 38.0192 22.8064 37.4127C22.8064 36.8188 22.6742 36.3906 22.41 36.1261C22.1456 35.8623 21.7166 35.7297 21.1234 35.7297H20.0206V39.1921H21.0848ZM17.5642 46.1272C17.5256 46.0819 17.5063 46.0265 17.5063 45.963V33.7566C17.5063 33.6921 17.5256 33.6377 17.5642 33.5925C17.6028 33.5469 17.6544 33.5248 17.7189 33.5248H21.1235C22.5809 33.5248 23.6483 33.8342 24.3249 34.4529C25.0019 35.072 25.3404 36.0268 25.3404 37.3155C25.3404 39.1472 24.728 40.3079 23.5027 40.798L23.4834 40.8362L25.9013 45.9044C25.9272 45.9813 25.9399 46.0265 25.9399 46.0395C25.9399 46.1426 25.8757 46.1949 25.7469 46.1949H23.4252C23.2965 46.1949 23.213 46.1426 23.1737 46.0395L21.0652 41.2427H20.0207V45.963C20.0207 46.1177 19.9502 46.1949 19.8081 46.1949H17.7189C17.6544 46.1949 17.6028 46.1721 17.5642 46.1272Z" fill="#0B0F21"/>
<path fill-rule="evenodd" clip-rule="evenodd" d="M29.0158 46.0013L25.9203 33.7953L25.9014 33.6988C25.9014 33.5827 25.9659 33.5252 26.0946 33.5252H28.3774C28.5192 33.5252 28.6026 33.589 28.6289 33.7178L30.1569 41.0492C30.3375 41.9138 30.4989 42.8423 30.6406 43.8346H30.6988C30.7886 43.1899 30.95 42.2614 31.1825 41.0492L32.7101 33.7178C32.7231 33.6666 32.7491 33.6213 32.7876 33.5827C32.8262 33.5434 32.8778 33.5252 32.9423 33.5252H35.2251C35.3798 33.5252 35.4381 33.6147 35.3991 33.7953L32.3236 46.0013C32.285 46.1304 32.2075 46.195 32.0917 46.195H29.2477C29.1319 46.195 29.0544 46.1304 29.0158 46.0013Z" fill="#0B0F21"/>
<path fill-rule="evenodd" clip-rule="evenodd" d="M36.4048 46.1274C36.3662 46.0821 36.3469 46.0274 36.3469 45.9629V33.7561C36.3469 33.6923 36.3662 33.6379 36.4048 33.5923C36.4434 33.5471 36.4949 33.525 36.5595 33.525H38.6483C38.7907 33.525 38.8612 33.6021 38.8612 33.7561V45.9629C38.8612 46.1175 38.7907 46.194 38.6483 46.194H36.5595C36.4949 46.194 36.4434 46.1726 36.4048 46.1274Z" fill="#0B0F21"/>
<path fill-rule="evenodd" clip-rule="evenodd" d="M40.4092 41.7845V37.9545C40.4092 36.4329 40.7799 35.288 41.5215 34.5208C42.263 33.7534 43.3427 33.3693 44.7615 33.3693C46.0769 33.3693 47.118 33.7151 47.8848 34.4044C48.6526 35.095 49.0367 36.033 49.0367 37.2186C49.0367 37.3484 49.0237 37.5676 48.9981 37.8763C48.9718 38.0447 48.9009 38.1281 48.7852 38.1281H46.6767C46.522 38.1281 46.4571 38.0447 46.4834 37.8763C46.5606 36.3683 45.9867 35.6135 44.7615 35.6135C44.1428 35.6135 43.6843 35.8036 43.3879 36.1842C43.0912 36.5648 42.9435 37.1737 42.9435 38.0124V41.6681C42.9435 42.532 43.0912 43.1546 43.3879 43.5352C43.6843 43.9158 44.1491 44.1056 44.7808 44.1056C45.3613 44.1056 45.7928 43.9348 46.0769 43.5928C46.3607 43.2518 46.5024 42.7713 46.5024 42.1514L46.4834 41.8228C46.4834 41.6555 46.5543 41.572 46.6956 41.572H48.7852C48.9009 41.572 48.9718 41.6614 48.9981 41.8424C49.0104 41.9712 49.017 42.1581 49.017 42.4036C49.017 43.6285 48.6463 44.5928 47.9051 45.2954C47.1636 45.9987 46.1162 46.3498 44.7615 46.3498C41.8603 46.3498 40.4092 44.8278 40.4092 41.7845Z" fill="#0B0F21"/>
<path fill-rule="evenodd" clip-rule="evenodd" d="M50.6227 46.1274C50.5841 46.0821 50.5645 46.0274 50.5645 45.9629V33.7561C50.5645 33.6923 50.5841 33.6379 50.6227 33.5923C50.6606 33.5471 50.7125 33.525 50.7767 33.525H57.1414C57.2827 33.525 57.3536 33.6021 57.3536 33.7561V35.5363C57.3536 35.691 57.2827 35.7685 57.1414 35.7685H53.0791V38.7279H56.7734C56.9148 38.7279 56.9867 38.8054 56.9867 38.9594V40.6242C56.9867 40.7785 56.9148 40.856 56.7734 40.856H53.0791V43.9508H57.1414C57.2827 43.9508 57.3536 44.0284 57.3536 44.1831V45.9629C57.3536 46.1175 57.2827 46.194 57.1414 46.194H50.7767C50.7125 46.194 50.6606 46.1726 50.6227 46.1274Z" fill="#0B0F21"/>
<mask id="mask0" mask-type="alpha" maskUnits="userSpaceOnUse" x="0" y="49" width="11" height="16">
<path fill-rule="evenodd" clip-rule="evenodd" d="M0.0529785 49.7079H10.3119V64.9723H0.0529785V49.7079Z" fill="white"/>
</mask>
<g mask="url(#mask0)">
<path fill-rule="evenodd" clip-rule="evenodd" d="M1.22419 63.6527C0.442682 62.7737 0.0529785 61.4839 0.0529785 59.7862V55.054C0.0529785 53.3254 0.495999 52.0027 1.38309 51.0851C2.27089 50.1675 3.5333 49.7079 5.17069 49.7079C6.71793 49.7079 7.93053 50.1029 8.81026 50.8911C9.68999 51.68 10.1302 52.7498 10.1302 54.0989C10.1302 54.3419 10.1221 54.5317 10.1074 54.6678C10.0765 54.8495 9.9934 54.9404 9.85695 54.9404L7.37772 54.9176C7.22549 54.9176 7.15042 54.8267 7.15042 54.6447C7.19567 53.9017 7.05958 53.3335 6.74038 52.9396C6.42223 52.545 5.91397 52.3471 5.21664 52.3471C4.47301 52.3471 3.92336 52.5706 3.56733 53.0181C3.21095 53.4657 3.0324 54.1595 3.0324 55.1007V59.6045C3.0324 60.5744 3.19902 61.2728 3.5333 61.6969C3.86653 62.1213 4.40496 62.3331 5.14789 62.3331C5.84521 62.3331 6.37628 62.129 6.74038 61.7193C7.10482 61.31 7.28687 60.7105 7.28687 59.922V59.1033H5.32994C5.25417 59.1033 5.18998 59.0773 5.13701 59.024C5.08405 58.971 5.05739 58.9065 5.05739 58.8304V57.2151C5.05739 57.1404 5.08405 57.0748 5.13701 57.0225C5.18998 56.9692 5.25417 56.9422 5.32994 56.9422H9.9029C9.97867 56.9422 10.039 56.9692 10.0846 57.0225C10.1302 57.0748 10.153 57.1404 10.153 57.2151V61.31C10.153 62.7965 10.2056 63.8579 10.3119 64.4942V64.5626C10.3119 64.7145 10.2361 64.7906 10.0846 64.7906H8.12837C7.99192 64.7906 7.90107 64.7075 7.85512 64.5398C7.779 64.1915 7.74182 63.7215 7.74182 63.1294H7.69587C7.05957 64.3581 5.98973 64.9723 4.48844 64.9723C3.09309 64.9723 2.00535 64.5332 1.22419 63.6527Z" fill="#0B0F21"/>
</g>
<path fill-rule="evenodd" clip-rule="evenodd" d="M16.8405 56.5555C17.5375 56.5555 18.0496 56.385 18.3758 56.0437C18.702 55.7028 18.8648 55.1752 18.8648 54.4628C18.8648 53.7658 18.7094 53.2611 18.3989 52.9503C18.0878 52.6392 17.5834 52.4834 16.8857 52.4834H15.5889V56.5555H16.8405ZM12.7004 64.7112C12.6544 64.6579 12.6323 64.593 12.6323 64.5176V50.1638C12.6323 50.0884 12.6544 50.0235 12.7004 49.9701C12.7456 49.9168 12.8067 49.8909 12.8824 49.8909H16.8857C18.5996 49.8909 19.8546 50.2543 20.6509 50.9825C21.4468 51.7103 21.8449 52.8328 21.8449 54.3495C21.8449 56.5029 21.1244 57.8673 19.6838 58.4437L19.6614 58.4889L22.5043 64.4488C22.5349 64.5404 22.5503 64.593 22.5503 64.6084C22.5503 64.7298 22.4745 64.7908 22.3223 64.7908H19.593C19.4411 64.7908 19.3429 64.7298 19.2969 64.6084L16.8177 58.9663H15.5889V64.5176C15.5889 64.6993 15.5058 64.7908 15.3392 64.7908H12.8824C12.8067 64.7908 12.7456 64.7638 12.7004 64.7112Z" fill="#0B0F21"/>
<mask id="mask1" mask-type="alpha" maskUnits="userSpaceOnUse" x="23" y="49" width="12" height="16">
<path fill-rule="evenodd" clip-rule="evenodd" d="M23.7788 49.7084H34.0153V64.9723H23.7788V49.7084Z" fill="white"/>
</mask>
<g mask="url(#mask1)">
<path fill-rule="evenodd" clip-rule="evenodd" d="M30.523 61.6629C30.8791 61.2157 31.058 60.5215 31.058 59.5808V55.1228C31.058 54.167 30.8791 53.4662 30.523 53.0186C30.1663 52.571 29.624 52.3472 28.8969 52.3472C28.1683 52.3472 27.6303 52.571 27.2812 53.0186C26.9329 53.4662 26.7579 54.167 26.7579 55.1228V59.5808C26.7579 60.5215 26.9329 61.2157 27.2812 61.6629C27.6303 62.1105 28.1683 62.3336 28.8969 62.3336C29.624 62.3336 30.1663 62.1105 30.523 61.6629ZM25.0861 63.6419C24.2145 62.7538 23.7788 61.4465 23.7788 59.7172V54.9864C23.7788 53.2574 24.2106 51.9452 25.0749 51.0511C25.9395 50.156 27.2135 49.7084 28.8969 49.7084C30.5802 49.7084 31.8542 50.1524 32.7181 51.0395C33.5828 51.9266 34.0153 53.242 34.0153 54.9864V59.7172C34.0153 61.4465 33.5828 62.7538 32.7181 63.6419C31.8542 64.5294 30.5802 64.9724 28.8969 64.9724C27.2279 64.9724 25.9585 64.5294 25.0861 63.6419Z" fill="#0B0F21"/>
</g>
<mask id="mask2" mask-type="alpha" maskUnits="userSpaceOnUse" x="36" y="49" width="11" height="16">
<path fill-rule="evenodd" clip-rule="evenodd" d="M36.1755 49.8911H46.1623V64.9723H36.1755V49.8911Z" fill="white"/>
</mask>
<g mask="url(#mask2)">
<path fill-rule="evenodd" clip-rule="evenodd" d="M36.1755 59.6045V50.1632C36.1755 50.0878 36.2018 50.0236 36.2555 49.9703C36.3081 49.9174 36.3727 49.8911 36.4488 49.8911H38.9052C38.981 49.8911 39.042 49.9174 39.0873 49.9703C39.1332 50.0236 39.156 50.0878 39.156 50.1632V59.5358C39.156 60.506 39.3153 61.2156 39.6334 61.6628C39.9519 62.1108 40.4672 62.3335 41.1806 62.3335C41.878 62.3335 42.3859 62.1139 42.704 61.673C43.0232 61.2342 43.1828 60.5214 43.1828 59.5358V50.1632C43.1828 50.0878 43.2053 50.0236 43.2509 49.9703C43.2961 49.9174 43.3561 49.8911 43.4322 49.8911H45.8887C45.9644 49.8911 46.0293 49.9174 46.0823 49.9703C46.136 50.0236 46.1623 50.0878 46.1623 50.1632V59.6263C46.1623 61.4012 45.7413 62.7351 44.8998 63.6303C44.0584 64.5255 42.818 64.9723 41.1806 64.9723C37.8434 64.9723 36.1755 63.1824 36.1755 59.6045Z" fill="#0B0F21"/>
</g>
<path fill-rule="evenodd" clip-rule="evenodd" d="M52.3951 57.1019C53.077 57.1019 53.5814 56.9198 53.9076 56.5554C54.2338 56.1916 54.3966 55.623 54.3966 54.8499C54.3966 54.0305 54.2377 53.4356 53.9188 53.0631C53.601 52.6927 53.1005 52.5065 52.4179 52.5065H51.4852V57.1019H52.3951ZM48.5959 64.7103C48.5506 64.6577 48.5278 64.5932 48.5278 64.5178V50.1633C48.5278 50.0878 48.5506 50.0237 48.5959 49.97C48.6422 49.917 48.7015 49.89 48.7783 49.89H52.3951C54.0931 49.89 55.3447 50.2969 56.1483 51.1072C56.9515 51.9192 57.3539 53.1585 57.3539 54.8267C57.3539 56.4189 56.9364 57.6332 56.103 58.4663C55.2685 59.3011 54.0552 59.7178 52.4631 59.7178H51.4852V64.5178C51.4852 64.6994 51.4013 64.7906 51.2344 64.7906H48.7783C48.7015 64.7906 48.6422 64.764 48.5959 64.7103Z" fill="#0B0F21"/>
<path fill-rule="evenodd" clip-rule="evenodd" d="M4.58678 21.3765C5.73554 21.3765 6.31045 20.7076 6.31045 19.3697C6.31045 18.6457 6.17225 18.1185 5.89725 17.7881C5.62154 17.4573 5.19255 17.2921 4.61028 17.2921H3.85507V21.3765H4.58678ZM0.254412 29.4508C0.199342 29.3884 0.171631 29.3095 0.171631 29.2148V14.412C0.171631 14.3173 0.199342 14.2387 0.254412 14.1752C0.309834 14.1132 0.384547 14.0812 0.478904 14.0812H4.58675C6.44372 14.0812 7.80961 14.5144 8.68337 15.3794C9.55679 16.2455 9.99384 17.5756 9.99384 19.3698C9.99384 21.0545 9.54065 22.3408 8.63602 23.23C7.73069 24.1192 6.40513 24.5639 4.65796 24.5639H3.85505V29.2148C3.85505 29.3095 3.82699 29.3884 3.77227 29.4508C3.71685 29.514 3.65055 29.5456 3.57198 29.5456H0.478904C0.384547 29.5456 0.309834 29.514 0.254412 29.4508Z" fill="#0B0F21"/>
<path fill-rule="evenodd" clip-rule="evenodd" d="M16.9112 23.7849L16.3205 20.6683C16.116 19.6455 15.9273 18.5518 15.754 17.3866H15.707C15.5334 18.5518 15.3447 19.6455 15.1405 20.6683L14.5263 23.7849H16.9112ZM21.9633 29.3095C21.9633 29.467 21.8844 29.5452 21.7276 29.5452H18.3041C18.1463 29.5452 18.0365 29.4589 17.9737 29.286L17.4777 26.6885H13.9598L13.4638 29.286C13.4326 29.4589 13.3228 29.5452 13.1331 29.5452H9.78113C9.57593 29.5452 9.49771 29.427 9.54471 29.1913L13.4168 14.3405C13.4638 14.1682 13.5736 14.0812 13.7473 14.0812H17.7373C17.9105 14.0812 18.0207 14.1682 18.0677 14.3405L21.9398 29.1913L21.9633 29.3095Z" fill="#0B0F21"/>
<path fill-rule="evenodd" clip-rule="evenodd" d="M27.8659 20.8336C28.464 20.8336 28.9084 20.688 29.1999 20.3968C29.4907 20.1057 29.6366 19.6455 29.6366 19.0155C29.6366 18.4178 29.4984 17.9811 29.2234 17.7054C28.9477 17.43 28.511 17.2922 27.9129 17.2922H26.7564V20.8336H27.8659ZM23.1558 29.4509C23.1004 29.3884 23.073 29.3095 23.073 29.2148V14.4117C23.073 14.317 23.1004 14.2387 23.1558 14.1752C23.2108 14.1132 23.2856 14.0812 23.3803 14.0812H27.8659C29.7548 14.0812 31.1319 14.4744 31.9976 15.2619C32.8633 16.0487 33.2961 17.2683 33.2961 18.9208C33.2961 21.1562 32.5718 22.5649 31.1238 23.1472V23.1942L34.0282 29.1678C34.0594 29.2618 34.0752 29.3249 34.0752 29.3565C34.0752 29.4828 33.9886 29.5452 33.8153 29.5452H30.3921C30.2346 29.5452 30.1164 29.4747 30.0379 29.333L27.6302 23.8084H26.7564V29.2148C26.7564 29.3095 26.7287 29.3884 26.6736 29.4509C26.6182 29.514 26.5512 29.5452 26.473 29.5452H23.3803C23.2856 29.5452 23.2108 29.514 23.1558 29.4509Z" fill="#0B0F21"/>
<path fill-rule="evenodd" clip-rule="evenodd" d="M35.5269 29.4508C35.4718 29.3884 35.4441 29.3095 35.4441 29.2148V14.412C35.4441 14.317 35.4718 14.2387 35.5269 14.1752C35.5823 14.1132 35.657 14.0812 35.7514 14.0812H38.8444C38.923 14.0812 38.9893 14.1132 39.0447 14.1752C39.0998 14.2387 39.1275 14.317 39.1275 14.412V17.2687C39.1275 18.5753 39.0802 19.6928 38.9854 20.6213H39.0567L39.2457 20.1488C39.4025 19.7083 39.5839 19.2358 39.7887 18.7321C39.9932 18.2291 40.2135 17.7566 40.4499 17.3157L42.2911 14.27C42.3377 14.1444 42.4479 14.0812 42.6219 14.0812H46.1867C46.3432 14.0812 46.4228 14.1444 46.4228 14.27C46.4228 14.3489 46.407 14.412 46.3758 14.459L42.8344 20.5031L46.8714 29.1678C46.903 29.2618 46.9188 29.3176 46.9188 29.333C46.9188 29.3958 46.8953 29.447 46.8479 29.4863C46.8006 29.5259 46.7371 29.5456 46.6592 29.5456H42.9519C42.7787 29.5456 42.6689 29.4747 42.6219 29.333L40.237 23.525L39.1275 25.1774V29.2148C39.1275 29.3095 39.0998 29.3884 39.0447 29.4508C38.9893 29.514 38.923 29.5456 38.8444 29.5456H35.7514C35.657 29.5456 35.5823 29.514 35.5269 29.4508Z" fill="#0B0F21"/>
<path fill-rule="evenodd" clip-rule="evenodd" d="M50.7437 29.2146V17.3155H47.7692C47.6741 17.3155 47.5994 17.2839 47.5443 17.2211C47.4889 17.1583 47.4619 17.0871 47.4619 17.0082V14.4115C47.4619 14.3168 47.4889 14.2385 47.5443 14.1751C47.5994 14.113 47.6741 14.0811 47.7692 14.0811H57.4009C57.5907 14.0811 57.6851 14.1912 57.6851 14.4115V17.0082C57.6851 17.1029 57.6612 17.178 57.6135 17.2327C57.5665 17.2881 57.496 17.3155 57.4009 17.3155H54.4264V29.2146C54.4264 29.4352 54.3317 29.545 54.1433 29.545H51.0268C50.8381 29.545 50.7437 29.4352 50.7437 29.2146Z" fill="#0B0F21"/>
</svg>
