<svg width="65" height="59" viewBox="0 0 65 59" fill="none" xmlns="http://www.w3.org/2000/svg">
<mask id="mask0" mask-type="alpha" maskUnits="userSpaceOnUse" x="40" y="5" width="26" height="37">
<path fill-rule="evenodd" clip-rule="evenodd" d="M40.041 5.88867H65.0007V41.5273H40.041V5.88867Z" fill="white"/>
</mask>
<g mask="url(#mask0)">
<path fill-rule="evenodd" clip-rule="evenodd" d="M46.8212 5.88867C44.7196 5.88867 42.6585 6.24731 40.695 6.95504C40.1831 7.13913 39.915 7.7064 40.0992 8.22322C40.2833 8.73867 40.8453 9.00867 41.3585 8.82185C43.1081 8.19185 44.9457 7.87276 46.8212 7.87276C55.7587 7.87276 63.0306 15.1941 63.0306 24.1955C63.0306 31.1159 58.6756 37.3069 52.1959 39.6019C51.6813 39.7805 51.4119 40.3491 51.592 40.8632C51.7355 41.2723 52.1147 41.5273 52.5209 41.5273C52.6306 41.5273 52.7403 41.5109 52.8473 41.4714C60.1164 38.8996 65.0009 31.9573 65.0009 24.1955C65.0009 14.1005 56.8461 5.88867 46.8212 5.88867Z" fill="#1A171B"/>
</g>
<mask id="mask1" mask-type="alpha" maskUnits="userSpaceOnUse" x="0" y="0" width="49" height="59">
<path fill-rule="evenodd" clip-rule="evenodd" d="M0 0.36377H48.6511V58.9287H0V0.36377Z" fill="white"/>
</mask>
<g mask="url(#mask1)">
<path fill-rule="evenodd" clip-rule="evenodd" d="M46.6808 49.0696C46.6808 50.6215 45.8507 52.026 44.5142 52.7351C41.5526 54.3087 34.993 56.946 24.3249 56.946C13.6568 56.946 7.09583 54.3087 4.13562 52.7351C2.80042 52.026 1.96896 50.6215 1.96896 49.0696V45.6783C1.96896 43.0383 3.43958 40.6383 5.80667 39.4137C7.38292 38.5969 9.15958 37.8646 11.092 37.236C11.9979 36.9401 12.759 36.7151 13.4861 36.5269C13.5173 36.5187 14.3745 36.3046 15.7977 36.0496C16.8269 38.0269 20.1757 39.4656 22.4453 40.2415L19.9022 42.7178L16.3868 39.4056C15.99 39.0319 15.3671 39.051 14.9947 39.4506C14.625 39.8515 14.644 40.4787 15.0421 40.8551L19.24 44.811C19.4296 44.9883 19.672 45.0769 19.913 45.0769C20.1608 45.0769 20.4059 44.9842 20.5982 44.7987L20.8487 44.5533L21.4351 45.2801L19.7505 53.6365C19.6435 54.171 19.9875 54.6946 20.5197 54.8051C20.586 54.8187 20.6524 54.8242 20.7174 54.8242C21.1765 54.8242 21.5868 54.4996 21.6829 54.0306L23.4596 45.2146C23.5178 44.9228 23.4433 44.6215 23.2578 44.391L22.2706 43.1719L24.3208 41.1756L26.371 43.1733L25.3866 44.391C25.1997 44.6215 25.1266 44.9228 25.1834 45.2146L26.9615 54.0306C27.0562 54.4996 27.4679 54.8242 27.927 54.8242C27.9906 54.8242 28.0583 54.8187 28.1233 54.8051C28.6569 54.6946 29.0008 54.171 28.8925 53.6365L27.2079 45.2801L27.7929 44.5546L28.0421 44.7987C28.233 44.9842 28.4795 45.0769 28.7286 45.0769C28.9683 45.0769 29.2107 44.9883 29.4003 44.811L33.5982 40.8551C33.9964 40.4787 34.0167 39.8515 33.6456 39.4506C33.2719 39.0524 32.6503 39.0346 32.2522 39.4056L28.7381 42.7178L28.3319 42.3224L26.1977 40.2442C28.4998 39.4574 31.9204 37.9874 32.8968 35.9637C33.6524 36.1219 34.4053 36.3006 35.146 36.5215C35.8732 36.711 36.6343 36.936 37.5402 37.2292C39.4726 37.8592 41.256 38.5915 42.8364 39.4096C45.2075 40.6356 46.6808 43.041 46.6808 45.6824V49.0696ZM19.4364 31.7624C20.972 32.5901 22.6322 33.0251 24.3154 33.0251C26 33.0251 27.6643 32.5887 29.2013 31.7583C29.5411 32.8806 30.1261 34.0587 31.1147 35.1633C30.5608 36.2937 27.3339 37.8728 24.3249 38.7606C21.3078 37.8715 18.0727 36.2896 17.5297 35.1551C18.5142 34.0546 19.0965 32.8806 19.4364 31.7624ZM14.3 21.4301C14.2282 21.1437 14.0061 20.9119 13.7407 20.7851C13.4713 20.6569 13.1381 20.6678 12.8741 20.7946C12.7942 20.8001 12.7278 20.7551 12.633 20.6774C12.2701 20.3733 11.8598 19.5865 11.7636 18.5106C11.6309 17.0174 12.1902 16.0451 12.5274 16.0328C12.824 16.1269 13.1503 16.071 13.4022 15.8842C13.6541 15.6974 13.8017 15.4015 13.8017 15.0865C13.8017 14.9242 13.8044 14.4442 13.8084 14.0406C19.7532 10.7556 27.1862 11.5983 27.2621 11.6051C27.6101 11.6474 27.9473 11.5028 28.1585 11.2287L29.3353 9.7001L29.8851 11.5015C29.9921 11.8506 30.2805 12.111 30.6353 12.1833C30.657 12.1887 32.6246 12.5992 34.8102 13.5865C34.8129 13.596 34.8116 13.6069 34.8143 13.6178C34.8224 14.1456 34.8278 14.796 34.8278 15.0865C34.8278 15.4028 35.0039 15.6892 35.2557 15.876C35.5076 16.0628 35.8583 16.1092 36.159 16.0178C36.4406 16.0451 36.9999 17.0174 36.8658 18.5106C36.771 19.5865 36.3607 20.3746 35.9978 20.6774C35.903 20.7565 35.8123 20.7987 35.708 20.7796C35.4412 20.6487 35.1325 20.6501 34.8657 20.7769C34.6003 20.9037 34.4026 21.1437 34.3295 21.4301C33.4818 24.7996 31.72 27.6006 29.3678 29.3201C26.2817 31.5756 22.337 31.5742 19.2549 29.3146C16.9068 27.5951 15.1491 24.7942 14.3 21.4301ZM15.2249 5.67328C16.9501 3.46692 20.0051 2.34601 24.3059 2.34601C28.5973 2.34601 31.6509 3.46283 33.3775 5.66101C34.8739 7.56464 35.0851 9.93874 35.0215 11.5124C33.5847 10.9137 32.3077 10.5496 31.6008 10.3724L30.6624 7.29192C30.5541 6.93874 30.2602 6.67555 29.8986 6.60601C29.5384 6.54192 29.1688 6.68374 28.9426 6.97419L26.933 9.58146C25.071 9.43828 19.0166 9.22555 13.6094 11.9024C13.4929 10.3615 13.5972 7.75419 15.2249 5.67328ZM43.7369 37.6451C42.0604 36.7792 40.1808 36.0046 38.1455 35.3433C37.2003 35.0351 36.4027 34.7992 35.6742 34.611C34.6734 34.3124 33.6592 34.0874 32.6449 33.8924C31.6685 32.826 31.1648 31.6628 30.9292 30.6006C33.2475 28.7556 35.0255 26.0201 36.0046 22.7651C36.4433 22.716 36.8672 22.5265 37.2531 22.206C38.1063 21.4942 38.6967 20.1783 38.8294 18.6865C39.0284 16.4337 38.1712 14.5833 36.7914 14.136C36.7886 13.9124 36.7859 13.686 36.7819 13.4801C36.9782 12.4956 37.6878 7.96828 34.9348 4.44601C32.8169 1.73783 29.2405 0.363281 24.3059 0.363281C19.37 0.363281 15.795 1.73783 13.6771 4.44601C10.8631 8.04465 11.6661 12.696 11.8435 13.5428C11.8408 13.6887 11.8395 13.9056 11.8381 14.136C10.4582 14.5833 9.6024 16.4337 9.80281 18.6865C9.93552 20.1783 10.5232 21.4942 11.3777 22.206C11.7623 22.5265 12.1889 22.7146 12.6263 22.7651C13.6053 26.0215 15.3874 28.7569 17.7071 30.6046C17.4606 31.7078 16.9339 32.9174 15.883 34.0165C14.1145 34.3206 13.0257 34.5987 12.9946 34.6069C12.2268 34.806 11.4319 35.0419 10.4853 35.3487C8.45406 36.0101 6.57719 36.7846 4.90615 37.6492C1.88094 39.2174 0 42.2937 0 45.6783V49.0696C0 51.3592 1.23094 53.436 3.21479 54.4915C7.02948 56.5151 13.7881 58.9287 24.3249 58.9287C34.8603 58.9287 41.619 56.5151 45.435 54.4915C47.4189 53.436 48.6511 51.3592 48.6511 49.0696V45.6824C48.6511 42.2937 46.7675 39.2133 43.7369 37.6451Z" fill="#1A171B"/>
</g>
<path fill-rule="evenodd" clip-rule="evenodd" d="M57.4062 19.393C57.7542 18.9498 57.6811 18.3062 57.241 17.9557C56.8022 17.6039 56.1617 17.6803 55.8137 18.1221L47.9203 28.1585L42.704 23.4416C42.2869 23.0639 41.645 23.098 41.2686 23.518C40.8948 23.938 40.93 24.5857 41.3471 24.9621L48.1694 31.1326L57.4062 19.393Z" fill="#1A171B"/>
</svg>
