<svg width="60" height="60" viewBox="0 0 60 60" fill="none" xmlns="http://www.w3.org/2000/svg">
<path fill-rule="evenodd" clip-rule="evenodd" d="M21.1672 41.1514H26.5547C27.4204 41.1514 28.1247 41.8571 28.1247 42.7245V48.1258C28.1247 48.9932 27.4204 49.6989 26.5547 49.6989H21.1672C20.2996 49.6989 19.5938 48.9932 19.5938 48.1258V42.7245C19.5938 41.8571 20.2996 41.1514 21.1672 41.1514ZM21.3481 47.9412H26.3704V42.9092H21.3481V47.9412Z" fill="#0B0F21"/>
<path fill-rule="evenodd" clip-rule="evenodd" d="M51.52 41.3804H57.7891C58.9437 41.3804 59.883 42.32 59.8833 43.4752V46.8502C59.8833 48.007 58.944 48.9482 57.7894 48.9482H48.9798L48.9766 48.9484L48.972 48.9482H38.1284L38.1253 48.9484L38.1207 48.9482H32.3753V56.9918C32.3753 58.6505 31.0284 60 29.373 60H22.8881H6.7786C5.55462 60 4.55871 59.0023 4.55871 57.7758V55.4638C4.55871 54.2374 5.5545 53.2396 6.7786 53.2396H11.3518V45.1195C11.3518 44.6341 11.7446 44.2406 12.229 44.2406C12.7135 44.2406 13.1062 44.6341 13.1062 45.1195V53.2395H15.9105V29.0089C15.4495 29.0534 14.9825 29.0769 14.5101 29.0769C14.0365 29.0769 13.5684 29.0532 13.1063 29.0086V41.0634C13.1063 41.5488 12.7136 41.9423 12.2291 41.9423C11.7447 41.9423 11.3519 41.5488 11.3519 41.0634V28.729C4.86468 27.2805 0 21.4684 0 14.5384C0 6.52184 6.50912 0 14.5101 0C22.511 0 29.0201 6.52184 29.0201 14.5384C29.0201 21.4696 24.1538 27.2825 17.6649 28.7297V33.5057C19.2623 32.1034 21.3206 31.3084 23.4981 31.3084C24.9432 31.3084 26.3792 31.6682 27.6511 32.3489C28.0785 32.5775 28.2399 33.11 28.0116 33.5382C27.7834 33.9664 27.2519 34.128 26.8246 33.8994C25.8061 33.3544 24.6559 33.0663 23.4981 33.0663C21.167 33.0663 19.0051 34.2035 17.6649 36.1207V53.2396H22.8881C24.1104 53.2396 25.1047 54.2373 25.1047 55.4638V57.7758C25.1047 57.9357 25.0869 58.0916 25.0547 58.2422H29.373C30.0612 58.2422 30.6209 57.6812 30.6209 56.9918V40.2033C30.6209 38.7668 30.1892 37.3764 29.3723 36.1825C29.0984 35.782 29.2001 35.235 29.5998 34.9605C29.9994 34.686 30.5454 34.7882 30.8192 35.1885C31.8372 36.6763 32.3753 38.4103 32.3753 40.2032V41.3804H40.6599H40.6688H51.5111H51.52ZM14.5101 1.75781C7.47661 1.75781 1.75439 7.49121 1.75439 14.5384C1.75439 21.5856 7.47661 27.319 14.5101 27.319C15.2237 27.319 15.9235 27.259 16.6056 27.1455C16.6149 27.1436 16.6244 27.1422 16.6339 27.1407L16.6339 27.1407L16.6467 27.1388C22.6664 26.1171 27.2657 20.8562 27.2657 14.5384C27.2657 7.49121 21.5435 1.75781 14.5101 1.75781ZM6.3131 57.7758V55.4638C6.3131 55.2066 6.52199 54.9974 6.7786 54.9974H22.8881C23.1386 54.9974 23.3503 55.211 23.3503 55.4638V57.7758C23.3503 58.0287 23.1386 58.2422 22.8881 58.2422H6.7786C6.5262 58.2422 6.3131 58.0286 6.3131 57.7758ZM41.2295 43.1382L39.4653 47.1903H48.4026L50.1668 43.1382H41.2295ZM32.3753 43.1382H39.3156L37.5513 47.1903H32.3753V43.1382ZM57.7891 47.1903C57.9732 47.1903 58.1287 47.0346 58.1287 46.8502H58.1285V43.4752C58.1285 43.2925 57.9731 43.1382 57.789 43.1382H52.0807L50.3165 47.1903H57.7891Z" fill="#0B0F21"/>
<path fill-rule="evenodd" clip-rule="evenodd" d="M17.336 9.5066C17.922 10.1344 18.2191 10.9018 18.2191 11.7878C18.2191 12.6509 17.9028 13.4054 17.2793 14.0304C16.6717 14.6436 15.9062 14.9688 15.0676 14.9688H13.2143C13.187 14.9688 13.1608 14.9693 13.1356 14.9697C13.1284 14.9698 13.1213 14.9699 13.1143 14.97L13.1041 14.9702C13.0768 14.9706 13.0475 14.9711 13.0167 14.9711C12.7631 14.9711 12.4023 14.9414 12.1064 14.65C11.8855 14.4323 11.7734 14.1398 11.7734 13.7809V9.6784C11.7734 8.99566 12.2119 8.72801 12.4005 8.64469C12.6438 8.53711 12.8774 8.53711 13.1247 8.53711H15.0907C15.9801 8.53711 16.7355 8.86324 17.336 9.5066ZM15.0675 13.2109C15.4436 13.2109 15.7514 13.0771 16.0364 12.7896C16.3292 12.4962 16.4647 12.1785 16.4647 11.7878C16.4647 11.3503 16.3344 11.007 16.0546 10.7073C15.7884 10.4221 15.4911 10.2949 15.0906 10.2949H13.5277V13.2109H15.0675Z" fill="#0B0F21"/>
<path fill-rule="evenodd" clip-rule="evenodd" d="M22.1332 11.7646C22.1332 13.693 21.5171 15.2823 20.3019 16.4882C19.0898 17.6949 17.4775 18.3073 15.5106 18.3072H13.5266V21.2585C13.5266 22.003 13.2428 22.6809 12.706 23.2187C12.1638 23.762 11.5055 24.0375 10.7496 24.0375C9.99371 24.0375 9.33546 23.762 8.79324 23.2187C8.2564 22.6809 7.97266 21.9857 7.97266 21.2087V8.00422C7.97266 7.2166 8.25897 6.5109 8.80061 5.96363C9.35991 5.40793 10.0373 5.12891 10.8192 5.12891H15.2751C17.2689 5.12891 18.9254 5.74871 20.1986 6.97109C21.4826 8.20754 22.1332 9.82004 22.1332 11.7646ZM11.7722 17.4284C11.7722 16.943 12.1649 16.5495 12.6494 16.5495V16.5494H15.5104C17.0183 16.5494 18.1814 16.1212 19.0662 15.2402C19.9498 14.3634 20.3789 13.2268 20.3789 11.7645C20.3789 10.2963 19.9225 9.14316 18.9839 8.2393C18.0362 7.32945 16.8227 6.88672 15.2751 6.88672H10.8192C10.5039 6.88672 10.2638 6.98539 10.0411 7.20664C9.82856 7.42145 9.72704 7.67656 9.72704 8.00422V21.2088C9.72704 21.5224 9.82447 21.7661 10.0337 21.9758C10.2435 22.186 10.4644 22.2798 10.7496 22.2798C11.0349 22.2798 11.2557 22.186 11.4655 21.9758C11.6748 21.7661 11.7722 21.5382 11.7722 21.2586V17.4284Z" fill="#0B0F21"/>
</svg>
