<svg width="60" height="60" viewBox="0 0 60 60" fill="none" xmlns="http://www.w3.org/2000/svg">
<path fill-rule="evenodd" clip-rule="evenodd" d="M51.52 41.3804H57.7891C58.9437 41.3804 59.883 42.32 59.8833 43.4752V46.8502C59.8833 48.007 58.944 48.9482 57.7894 48.9482H48.9798L48.9766 48.9484L48.972 48.9482H38.1284L38.1253 48.9484L38.1207 48.9482H32.3753V56.9918C32.3753 58.6505 31.0284 60 29.373 60H22.8881H6.7786C5.55462 60 4.55871 59.0023 4.55871 57.7758V55.4638C4.55871 54.2374 5.5545 53.2396 6.7786 53.2396H11.3518V45.1195C11.3518 44.6341 11.7446 44.2406 12.229 44.2406C12.7135 44.2406 13.1062 44.6341 13.1062 45.1195V53.2395H15.9105V29.0089C15.4495 29.0534 14.9825 29.0769 14.5101 29.0769C14.0365 29.0769 13.5684 29.0532 13.1063 29.0086V41.0634C13.1063 41.5488 12.7136 41.9423 12.2291 41.9423C11.7447 41.9423 11.3519 41.5488 11.3519 41.0634V28.729C4.86468 27.2805 0 21.4684 0 14.5384C0 6.52184 6.50912 0 14.5101 0C22.511 0 29.0201 6.52184 29.0201 14.5384C29.0201 21.4696 24.1538 27.2825 17.6649 28.7297V33.5057C19.2623 32.1034 21.3206 31.3084 23.4981 31.3084C24.9432 31.3084 26.3792 31.6682 27.6511 32.3489C28.0785 32.5775 28.2399 33.11 28.0116 33.5382C27.7834 33.9664 27.2519 34.128 26.8246 33.8994C25.8061 33.3544 24.6559 33.0663 23.4981 33.0663C21.167 33.0663 19.0051 34.2035 17.6649 36.1207V53.2396H22.8881C24.1104 53.2396 25.1047 54.2373 25.1047 55.4638V57.7758C25.1047 57.9357 25.0869 58.0916 25.0547 58.2422H29.373C30.0612 58.2422 30.6209 57.6812 30.6209 56.9918V40.2033C30.6209 38.7668 30.1892 37.3764 29.3723 36.1825C29.0984 35.782 29.2001 35.235 29.5998 34.9605C29.9994 34.686 30.5454 34.7882 30.8192 35.1885C31.8372 36.6763 32.3753 38.4103 32.3753 40.2032V41.3804H40.6599H40.6688H51.5111H51.52ZM14.5101 1.75781C7.47661 1.75781 1.75439 7.49121 1.75439 14.5384C1.75439 21.5856 7.47661 27.319 14.5101 27.319C15.2237 27.319 15.9235 27.259 16.6056 27.1455C16.6149 27.1436 16.6244 27.1422 16.6339 27.1407L16.6339 27.1407L16.6467 27.1388C22.6664 26.1171 27.2657 20.8562 27.2657 14.5384C27.2657 7.49121 21.5435 1.75781 14.5101 1.75781ZM6.3131 57.7758V55.4638C6.3131 55.2066 6.52199 54.9974 6.7786 54.9974H22.8881C23.1386 54.9974 23.3503 55.211 23.3503 55.4638V57.7758C23.3503 58.0287 23.1386 58.2422 22.8881 58.2422H6.7786C6.5262 58.2422 6.3131 58.0286 6.3131 57.7758ZM41.2295 43.1382L39.4653 47.1903H48.4026L50.1668 43.1382H41.2295ZM32.3753 43.1382H39.3156L37.5513 47.1903H32.3753V43.1382ZM57.7891 47.1903C57.9732 47.1903 58.1287 47.0346 58.1287 46.8502H58.1285V43.4752C58.1285 43.2925 57.9731 43.1382 57.789 43.1382H52.0807L50.3165 47.1903H57.7891Z" fill="#0B0F21"/>
</svg>
