<svg width="60" height="60" viewBox="0 0 60 60" fill="none" xmlns="http://www.w3.org/2000/svg">
<rect width="60" height="60" rx="5" fill="#0B0F21"/>
<path fill-rule="evenodd" clip-rule="evenodd" d="M41.8047 15.862L35.138 9.19531C35.013 9.07031 34.8438 9 34.6666 9H20.6666C19.1959 9 18 10.1959 18 11.6667V38.3334C18 39.8041 19.1959 41 20.6667 41H39.3334C40.8041 41 42 39.8041 42 38.3333V16.3333C42 16.1562 41.9297 15.987 41.8047 15.862ZM35.3333 11.2761L39.7239 15.6667H36.6666C35.9316 15.6667 35.3333 15.0684 35.3333 14.3334V11.2761ZM40.6667 38.3333C40.6667 39.0683 40.0684 39.6666 39.3334 39.6666H20.6667C19.9317 39.6666 19.3334 39.0683 19.3334 38.3333V11.6667C19.3334 10.9317 19.9317 10.3334 20.6667 10.3334H34V14.3334C34 15.8041 35.1959 17 36.6667 17H40.6667V38.3333Z" fill="#FAD756"/>
<path fill-rule="evenodd" clip-rule="evenodd" d="M33.3991 27.7138C32.7819 27.2281 32.1953 26.7288 31.8047 26.3382C31.2969 25.8304 30.8444 25.3382 30.4512 24.8694C31.0645 22.9742 31.3334 21.997 31.3334 21.4762C31.3334 19.2633 30.5339 18.8095 29.3334 18.8095C28.4212 18.8095 27.3334 19.2834 27.3334 21.54C27.3334 22.5348 27.8783 23.7425 28.9584 25.1461C28.6941 25.9527 28.3835 26.8831 28.0346 27.9319C27.8666 28.4352 27.6843 28.9013 27.4916 29.3323C27.3347 29.402 27.1823 29.4729 27.0352 29.5465C26.5052 29.8115 26.002 30.0497 25.5352 30.2711C23.4062 31.2789 22 31.9456 22 33.262C22 34.2177 23.0384 34.8095 24 34.8095C25.2396 34.8095 27.1113 33.1539 28.4785 30.3648C29.8977 29.8049 31.6621 29.3902 33.0547 29.1304C34.1706 29.9885 35.403 30.8095 36 30.8095C37.653 30.8095 38 29.8537 38 29.0523C38 27.4761 36.1992 27.4761 35.3333 27.4761C35.0644 27.4762 34.3431 27.5556 33.3991 27.7138ZM24 33.4762C23.6191 33.4762 23.3613 33.2965 23.3333 33.262C23.3333 32.7893 24.7428 32.1214 26.1061 31.4755C26.1927 31.4345 26.2806 31.3935 26.3698 31.3512C25.3685 32.803 24.3783 33.4762 24 33.4762ZM28.6667 21.54C28.6667 20.1429 29.1003 20.1429 29.3334 20.1429C29.8047 20.1429 30.0001 20.1429 30.0001 21.4762C30.0001 21.7574 29.8126 22.4605 29.4694 23.5582C28.9459 22.7522 28.6667 22.0615 28.6667 21.54ZM29.1778 28.7054C29.2194 28.5895 29.2598 28.4723 29.2989 28.3538C29.5463 27.6116 29.7689 26.9449 29.9675 26.3447C30.2442 26.6494 30.5424 26.9612 30.8621 27.2809C30.9871 27.4059 31.2969 27.6871 31.7098 28.0393C30.888 28.2184 30.0137 28.4404 29.1778 28.7054ZM36.6667 29.0524C36.6667 29.3519 36.6667 29.4762 36.0482 29.4801C35.8666 29.441 35.4466 29.1937 34.9284 28.8408C35.1165 28.82 35.2552 28.8095 35.3333 28.8095C36.3184 28.8095 36.5977 28.9059 36.6667 29.0524Z" fill="#FAD756"/>
<path d="M23.402 46.7C24.218 46.7 24.86 46.895 25.328 47.285C25.796 47.675 26.03 48.212 26.03 48.896C26.03 49.58 25.796 50.117 25.328 50.507C24.86 50.897 24.218 51.092 23.402 51.092H21.845V53H20.945V46.7H23.402ZM23.375 50.309C23.945 50.309 24.38 50.189 24.68 49.949C24.98 49.703 25.13 49.352 25.13 48.896C25.13 48.44 24.98 48.092 24.68 47.852C24.38 47.606 23.945 47.483 23.375 47.483H21.845V50.309H23.375ZM27.3522 46.7H30.0072C30.6732 46.7 31.2642 46.832 31.7802 47.096C32.2962 47.36 32.6952 47.732 32.9772 48.212C33.2652 48.686 33.4092 49.232 33.4092 49.85C33.4092 50.468 33.2652 51.017 32.9772 51.497C32.6952 51.971 32.2962 52.34 31.7802 52.604C31.2642 52.868 30.6732 53 30.0072 53H27.3522V46.7ZM29.9532 52.217C30.4632 52.217 30.9102 52.118 31.2942 51.92C31.6842 51.722 31.9842 51.446 32.1942 51.092C32.4042 50.732 32.5092 50.318 32.5092 49.85C32.5092 49.382 32.4042 48.971 32.1942 48.617C31.9842 48.257 31.6842 47.978 31.2942 47.78C30.9102 47.582 30.4632 47.483 29.9532 47.483H28.2522V52.217H29.9532ZM35.6878 47.483V49.679H38.8468V50.453H35.6878V53H34.7878V46.7H39.2338V47.483H35.6878Z" fill="white"/>
</svg>
