<?xml version="1.0" encoding="utf-8"?>
<!-- Generator: Adobe Illustrator 24.1.1, SVG Export Plug-In . SVG Version: 6.00 Build 0)  -->
<svg version="1.1" id="Слой_1" xmlns="http://www.w3.org/2000/svg" xmlns:xlink="http://www.w3.org/1999/xlink" x="0px" y="0px"
	 viewBox="0 0 24 32" style="enable-background:new 0 0 24 32;" xml:space="preserve">
<style type="text/css">
	.st0{fill-rule:evenodd;clip-rule:evenodd;fill:#FFFFFF;}
	.st1{fill-rule:evenodd;clip-rule:evenodd;fill:#0B0F21;}
</style>
<path class="st0" d="M22.8,29.2c0,0.7-0.6,1.3-1.3,1.3H2.8c-0.7,0-1.3-0.6-1.3-1.3V2.5c0-0.7,0.6-1.3,1.3-1.3h13.3v4
	c0,1.5,1.2,2.7,2.7,2.7h4V29.2z"/>
<path class="st1" d="M17.1,0.2l6.7,6.7C23.9,7,24,7.2,24,7.3v22c0,1.5-1.2,2.7-2.7,2.7H2.7C1.2,32,0,30.8,0,29.3V2.7
	C0,1.2,1.2,0,2.7,0h14C16.8,0,17,0.1,17.1,0.2z M21.7,6.7l-4.4-4.4v3.1c0,0.7,0.6,1.3,1.3,1.3H21.7z M21.3,30.7
	c0.7,0,1.3-0.6,1.3-1.3V8h-4C17.2,8,16,6.8,16,5.3v-4H2.7c-0.7,0-1.3,0.6-1.3,1.3v26.7c0,0.7,0.6,1.3,1.3,1.3H21.3z M13.8,18.2
	c0.4,0.4,1,0.9,1.6,1.4c0.9-0.2,1.7-0.2,1.9-0.2c0.9,0,2.7,0,2.7,1.6c0,0.8-0.3,1.8-2,1.8c-0.6,0-1.8-0.8-2.9-1.7
	c-1.4,0.3-3.2,0.7-4.6,1.2C9.1,25,7.2,26.7,6,26.7c-1,0-2-0.6-2-1.5c0-1.3,1.4-2,3.5-3l0,0C8,21.9,8.5,21.7,9,21.4
	c0.1-0.1,0.3-0.1,0.5-0.2c0.2-0.4,0.4-0.9,0.5-1.4c0.1-0.2,0.1-0.4,0.2-0.5c0.3-0.8,0.5-1.6,0.7-2.3c-1.1-1.4-1.6-2.6-1.6-3.6
	c0-2.3,1.1-2.7,2-2.7c1.2,0,2,0.5,2,2.7c0,0.5-0.3,1.5-0.9,3.4C12.8,17.2,13.3,17.7,13.8,18.2z M5.3,25.1c0,0,0.3,0.2,0.7,0.2
	c0.4,0,1.4-0.7,2.4-2.1c0,0-0.1,0-0.1,0.1c0,0-0.1,0-0.1,0.1C6.7,24,5.3,24.6,5.3,25.1z M11.3,12c-0.2,0-0.7,0-0.7,1.4
	c0,0.5,0.3,1.2,0.8,2c0.3-1.1,0.5-1.8,0.5-2.1C12,12,11.8,12,11.3,12z M11.3,20.2c0,0.1-0.1,0.2-0.1,0.4c0.8-0.3,1.7-0.5,2.5-0.7
	c-0.4-0.4-0.7-0.6-0.8-0.8c-0.3-0.3-0.6-0.6-0.9-0.9c-0.2,0.5-0.3,1-0.5,1.6C11.4,19.9,11.3,20.1,11.3,20.2z M18,21.3
	c0.6,0,0.6-0.1,0.6-0.4c-0.1-0.1-0.3-0.2-1.3-0.2c-0.1,0-0.2,0-0.4,0C17.4,21.1,17.9,21.3,18,21.3z"/>
</svg>
